<svg xmlns="http://www.w3.org/2000/svg" width="1960" height="1102" viewBox="0 0 1960 1102" fill="none">
<g clip-path="url(#clip0_23_752)">
<path d="M1869.39 237.796C1869.19 231.859 1874.7 227.365 1880.48 228.748L1952.1 245.897C1956.14 246.867 1959 250.487 1959 254.65V812.717C1959 815.644 1957.58 818.389 1955.18 820.075L1903.62 856.398C1897.77 860.521 1889.67 856.49 1889.44 849.335L1869.39 237.796Z" fill="white" data-part="rail" />
<path d="M1931 806.396L1931 768.502L1911 796.424L1911 836.312L1931 806.396Z" fill="#FCA01B" data-part="rail" />
<path d="M1931 759.396L1931 721.502L1911 749.424L1911 789.312L1931 759.396Z" fill="#FCA01B" data-part="rail" />
<path d="M1931 712.396L1931 674.502L1911 702.424L1911 742.312L1931 712.396Z" fill="#FBEBA8" data-part="rail" />
<path d="M1931 662.396L1931 624.502L1911 652.424L1911 692.312L1931 662.396Z" fill="#FBEBA8" data-part="rail" />
<path d="M1931 612.396L1931 574.502L1911 602.424L1911 642.312L1931 612.396Z" fill="#FBEBA8" data-part="rail" />
<path d="M1931 562.396L1931 524.502L1911 552.424L1911 592.312L1931 562.396Z" fill="#FBEBA8" data-part="rail" />
<path d="M1931 512.396L1931 474.502L1911 502.424L1911 542.312L1931 512.396Z" fill="#FBEBA8" data-part="rail" />
<path d="M1931 462.396L1931 424.502L1911 452.424L1911 492.312L1931 462.396Z" fill="#FBEBA8" data-part="rail" />
<path d="M1931 412.396L1931 374.502L1911 402.424L1911 442.312L1931 412.396Z" fill="#FBEBA8" data-part="rail" />
<path d="M1931 362.396L1931 324.502L1911 352.424L1911 392.312L1931 362.396Z" fill="#FBEBA8" data-part="rail" />
<path d="M163.556 1012.5C163.556 985.162 141.394 963 114.056 963H109.876C86.8538 963 66.8709 978.872 61.6604 1001.3C54.4489 1032.33 78.0126 1062 109.876 1062H117.057C142.738 1062 163.556 1041.18 163.556 1015.5V1012.5Z" fill="white" data-part="hint" />
<g filter="url(#filter0_d_23_752)" data-part="hint">
<circle cx="41.5" cy="41.5" r="41.5" transform="matrix(-1 0 0 1 153.056 971)" fill="#0A2D94" />
</g>
<path d="M121.887 996.66C118.987 994.549 115.412 993.303 111.536 993.297C101.781 993.281 93.8672 1001.18 93.8672 1010.94C93.8672 1011.06 93.8682 1011.18 93.8712 1011.3C93.9393 1014.68 95.1317 1017.94 97.1917 1020.62C99.1526 1023.17 102.344 1027.58 102.904 1029.95L103.223 1031.3C103.45 1032.26 104.31 1032.94 105.3 1032.94H117.711C118.701 1032.94 119.561 1032.26 119.788 1031.3L120.107 1029.95C120.667 1027.58 123.859 1023.17 125.82 1020.62C127.86 1017.96 129.053 1014.74 129.138 1011.39C129.141 1011.28 129.143 1011.16 129.143 1011.05C129.18 1005.13 126.319 999.886 121.887 996.662" fill="#FEE714" data-part="hint" />
<path d="M121.887 996.66C118.987 994.549 115.412 993.303 111.536 993.297C101.781 993.281 93.8672 1001.18 93.8672 1010.94C93.8672 1011.06 93.8682 1011.18 93.8712 1011.3C93.9393 1014.68 95.1317 1017.94 97.1917 1020.62C99.1526 1023.17 102.344 1027.58 102.904 1029.95L103.223 1031.3C103.45 1032.26 104.31 1032.94 105.3 1032.94H117.711C118.701 1032.94 119.561 1032.26 119.788 1031.3L120.107 1029.95C120.667 1027.58 123.859 1023.17 125.82 1020.62C127.86 1017.96 129.053 1014.74 129.138 1011.39C129.141 1011.28 129.143 1011.16 129.143 1011.05C129.18 1005.13 126.319 999.886 121.887 996.662" stroke="white" stroke-width="0.100198" stroke-miterlimit="10" data-part="hint" />
<path d="M105.161 1035.82H117.849" stroke="white" stroke-width="2.46587" stroke-miterlimit="10" stroke-linecap="round" data-part="hint" />
<path d="M107.137 1039.93H115.873" stroke="white" stroke-width="2.46587" stroke-miterlimit="10" stroke-linecap="round" data-part="hint" />
<path d="M105.161 1039.93H117.849" stroke="white" stroke-width="2.46587" stroke-miterlimit="10" stroke-linecap="round" data-part="hint" />
<path d="M107.137 1044.04H115.873" stroke="white" stroke-width="2.46587" stroke-miterlimit="10" stroke-linecap="round" data-part="hint" />
<g opacity="0.51" data-part="hint">
<path d="M106.138 999.177C106.911 998.819 107.726 998.535 108.572 998.336" stroke="white" stroke-width="2.46587" stroke-linecap="round" stroke-linejoin="round" />
<path d="M98.75 1009.47C99.0887 1006.29 100.583 1003.47 102.802 1001.41" stroke="white" stroke-width="2.46587" stroke-linecap="round" stroke-linejoin="round" />
</g>
<path d="M111.217 986.995V979" stroke="#FEE714" stroke-width="2.72037" stroke-miterlimit="10" stroke-linecap="round" data-part="hint" />
<path d="M94.4209 993.389L89.3008 988.268" stroke="#FEE714" stroke-width="2.72037" stroke-miterlimit="10" stroke-linecap="round" data-part="hint" />
<path d="M87.7047 1010.78H79.5557" stroke="#FEE714" stroke-width="2.72037" stroke-miterlimit="10" stroke-linecap="round" data-part="hint" />
<path d="M92.8093 1026.89L87.7042 1031.99" stroke="#FEE714" stroke-width="2.72037" stroke-miterlimit="10" stroke-linecap="round" data-part="hint" />
<path d="M132.476 1026.12L137.593 1031.24" stroke="#FEE714" stroke-width="2.72037" stroke-miterlimit="10" stroke-linecap="round" data-part="hint" />
<path d="M137.052 1008.76H145.032" stroke="#FEE714" stroke-width="2.72037" stroke-miterlimit="10" stroke-linecap="round" data-part="hint" />
<path d="M128.263 992.305L133.384 987.184" stroke="#FEE714" stroke-width="2.72037" stroke-miterlimit="10" stroke-linecap="round" data-part="hint" />
<path d="M1605.11 -3.5H2114C2116.49 -3.5 2118.5 -1.48528 2118.5 1V60C2118.5 62.4853 2116.49 64.5 2114 64.5H1649.95C1648.54 64.5 1647.22 63.8424 1646.36 62.7227L1601.53 3.72266C1599.28 0.7598 1601.39 -3.49993 1605.11 -3.5Z" stroke="white" stroke-width="5" data-part="deco-top" />
<path d="M1700.18 34.2748L1726.35 42.0927C1728.64 42.7768 1730.39 44.6309 1730.94 46.9558L1737.26 73.5252C1737.81 75.8503 1737.08 78.2937 1735.34 79.9347L1715.49 98.6874C1713.75 100.328 1711.27 100.918 1708.98 100.234L1682.81 92.4159C1680.52 91.7317 1678.77 89.8779 1678.22 87.5528L1671.91 60.9824C1671.36 58.6573 1672.09 56.2139 1673.82 54.5729L1693.68 35.8212C1695.41 34.1804 1697.89 33.5907 1700.18 34.2748Z" fill="#F5A524" stroke="white" stroke-width="3.34468" data-part="info" />
<path d="M1700.86 60.2728V57.597L1702.78 55.6738H1705.71L1707.63 57.597V60.2728L1705.71 62.1959H1702.78L1700.86 60.2728ZM1701.48 64.6208H1707V85.4415H1701.48V64.6208Z" fill="white" data-part="info" />
<path d="M1764.51 29.7217L1923.05 33.7002C1930.35 33.8835 1935.96 40.2501 1935.21 47.5205L1931 88.5371C1930.35 94.8207 1925.13 99.6436 1918.82 99.7939L1766.17 103.429C1759.3 103.592 1753.58 98.1929 1753.34 91.3223L1751.66 42.6934C1751.41 35.4771 1757.29 29.5406 1764.51 29.7217Z" fill="#0A2D94" stroke="white" stroke-width="3.34468" data-part="timer" />
<path d="M0 938H358.419L385.738 963H813" stroke="white" stroke-width="5" data-part="deco-bottom" />
<path d="M1167.56 995H1518.48L1545.23 1020H1963.56" stroke="white" stroke-width="5" data-part="deco-bottom" />
<path d="M356.5 965.99L378 966.5L354 943H334L356.5 965.99Z" fill="white" data-part="extra" />
<path d="M330.5 965.99L352 966.5L328 943H308L330.5 965.99Z" fill="white" data-part="extra" />
<path d="M1548.56 1014.5H2011.08L2012.56 992H1523.56L1548.56 1014.5Z" fill="white" data-part="deco-bottom" />
<path d="M778.271 926.206C781.511 917.973 789.677 912.755 798.509 913.275L1158.46 934.478C1165.72 934.905 1172.21 939.154 1175.5 945.639L1209.05 1011.74C1215.95 1025.35 1206.07 1041.46 1190.81 1041.46H762.957C748.535 1041.46 738.642 1026.93 743.922 1013.51L778.271 926.206Z" fill="#2E48A3" stroke="white" stroke-width="6.91" data-part="cta" />
<path d="M1188.8 1011.41C1192.1 1012.19 1194.14 1015.5 1193.36 1018.8C1192.58 1022.1 1189.27 1024.14 1185.97 1023.36C1182.67 1022.58 1180.63 1019.27 1181.41 1015.97C1182.19 1012.68 1185.5 1010.63 1188.8 1011.41Z" fill="white" data-part="cta" />
<path d="M1188.8 1012.63C1192.1 1013.41 1194.14 1016.71 1193.36 1020.01C1192.58 1023.31 1189.27 1025.36 1185.97 1024.58C1182.67 1023.8 1180.63 1020.49 1181.41 1017.19C1182.19 1013.89 1185.5 1011.85 1188.8 1012.63Z" fill="white" data-part="cta" />
<path d="M1187.4 1017.97C1189.66 1017.97 1191.49 1019.27 1191.49 1020.88C1191.49 1022.49 1189.66 1023.79 1187.4 1023.79C1185.14 1023.79 1183.31 1022.49 1183.31 1020.88C1183.31 1019.27 1185.14 1017.97 1187.4 1017.97Z" fill="white" data-part="cta" />
<path d="M766.796 1012.41C770.095 1013.19 772.139 1016.49 771.359 1019.79C770.58 1023.09 767.274 1025.14 763.974 1024.36C760.675 1023.58 758.632 1020.27 759.411 1016.97C760.19 1013.67 763.496 1011.63 766.796 1012.41Z" fill="white" data-part="cta" />
<path d="M766.796 1013.63C770.095 1014.4 772.139 1017.71 771.359 1021.01C770.58 1024.31 767.274 1026.35 763.974 1025.57C760.675 1024.8 758.632 1021.49 759.411 1018.19C760.19 1014.89 763.496 1012.85 766.796 1013.63Z" fill="white" data-part="cta" />
<path d="M765.387 1018.98C767.644 1018.98 769.475 1020.28 769.475 1021.89C769.475 1023.5 767.644 1024.8 765.387 1024.8C763.129 1024.8 761.298 1023.5 761.298 1021.89C761.298 1020.28 763.129 1018.98 765.387 1018.98Z" fill="white" data-part="cta" />
<rect width="1" height="9" transform="matrix(-1 8.74228e-08 8.74228e-08 1 766 1014)" fill="#3C3B3B" data-part="cta" />
<path d="M800.796 929.407C804.095 930.186 806.139 933.493 805.359 936.792C804.58 940.092 801.274 942.135 797.974 941.356C794.675 940.577 792.632 937.27 793.411 933.971C794.19 930.671 797.496 928.628 800.796 929.407Z" fill="white" data-part="cta" />
<path d="M800.796 930.624C804.095 931.403 806.139 934.709 805.359 938.009C804.58 941.309 801.274 943.352 797.974 942.573C794.675 941.794 792.632 938.487 793.411 935.188C794.19 931.888 797.496 929.845 800.796 930.624Z" fill="white" data-part="cta" />
<path d="M799.387 935.977C801.644 935.977 803.475 937.28 803.475 938.888C803.475 940.495 801.644 941.799 799.387 941.799C797.129 941.799 795.298 940.495 795.298 938.888C795.298 937.28 797.129 935.977 799.387 935.977Z" fill="white" data-part="cta" />
<rect width="1" height="9" transform="matrix(-1 8.74228e-08 8.74228e-08 1 800 931)" fill="#3C3B3B" data-part="cta" />
<path d="M1157.8 948.413C1161.1 949.192 1163.14 952.499 1162.36 955.798C1161.58 959.098 1158.27 961.141 1154.97 960.362C1151.67 959.583 1149.63 956.276 1150.41 952.977C1151.19 949.677 1154.5 947.634 1157.8 948.413Z" fill="white" data-part="cta" />
<path d="M1157.8 949.63C1161.1 950.409 1163.14 953.715 1162.36 957.015C1161.58 960.314 1158.27 962.358 1154.97 961.578C1151.67 960.799 1149.63 957.493 1150.41 954.193C1151.19 950.894 1154.5 948.851 1157.8 949.63Z" fill="white" data-part="cta" />
<path d="M1156.4 954.969C1158.66 954.969 1160.49 956.272 1160.49 957.88C1160.49 959.488 1158.66 960.791 1156.4 960.791C1154.14 960.791 1152.31 959.488 1152.31 957.88C1152.31 956.272 1154.14 954.969 1156.4 954.969Z" fill="white" data-part="cta" />
<rect width="1" height="9" transform="matrix(-1 8.74228e-08 8.74228e-08 1 1157 950)" fill="#3C3B3B" data-part="cta" />
<rect width="1" height="9" transform="matrix(-1 8.74228e-08 8.74228e-08 1 1188 1014)" fill="#3C3B3B" data-part="cta" />
<g filter="url(#filter1_i_23_752)" data-part="rail">
<circle cx="1950" cy="811" r="6" fill="#D9D9D9" />
</g>
<rect x="1949.33" y="806.998" width="1.33333" height="8" fill="#3C3B3B" data-part="rail" />
<g filter="url(#filter2_i_23_752)" data-part="rail">
<circle cx="1899" cy="846" r="6" fill="#D9D9D9" />
</g>
<rect x="1898.33" y="841.998" width="1.33333" height="8" fill="#3C3B3B" data-part="rail" />
<g filter="url(#filter3_i_23_752)" data-part="rail">
<circle cx="6" cy="6" r="6" transform="matrix(-1 0 0 1 1885 233)" fill="#D9D9D9" />
</g>
<rect width="1.33333" height="8" transform="matrix(-1 0 0 1 1879.67 234.998)" fill="#3C3B3B" data-part="rail" />
<g filter="url(#filter4_i_23_752)" data-part="rail">
<circle cx="6" cy="6" r="6" transform="matrix(-1 0 0 1 1956 249)" fill="#D9D9D9" />
</g>
<rect width="1.33333" height="8" transform="matrix(-1 0 0 1 1950.67 250.998)" fill="#3C3B3B" data-part="rail" />
<path d="M74 3C74 -0.865994 77.134 -4 81 -4H264.001C268.566 -4 271.909 0.298163 270.786 4.7223L257.817 55.8112C257.04 58.8739 254.307 61.0361 251.147 61.088L81.1151 63.883C77.2046 63.9473 74 60.795 74 56.884V3Z" fill="white" data-part="back" />
<path d="M-4 15C-4 4.50659 4.50659 -4 15 -4H119.955C127.839 -4 134.904 0.868898 137.71 8.23645L154.045 51.1164C157.854 61.1169 152.657 72.2891 142.554 75.8175L21.2645 118.177C8.9134 122.49 -4 113.322 -4 100.239V15Z" fill="#F5A524" data-part="back" />
<path d="M34.269 49.4829L56.6351 27.5882L56.602 38.1822L74.0029 38.1822L74.0029 60.8839L56.6551 60.8839L56.6351 71.3828L34.269 49.4829Z" fill="white" data-part="back" />
<path d="M65.187 27.5986L74.9809 27.5986C80.8283 27.5986 85.5869 32.502 85.5869 38.5295L85.5869 61.2528C85.5869 67.2782 80.8284 72.1836 74.9809 72.1836L65.1871 72.1836C63.662 72.1836 62.4197 70.9066 62.4197 69.3341C62.4197 67.7565 63.661 66.4806 65.1871 66.4806L74.9809 66.4806C77.7793 66.4806 80.0533 64.1343 80.0533 61.2517L80.0533 38.5285C80.0533 35.649 77.7793 33.2996 74.9809 33.2996L65.1871 33.2996C63.662 33.2996 62.4197 32.0226 62.4197 30.446C62.4207 28.8756 63.662 27.5986 65.187 27.5986Z" fill="white" data-part="back" />
<path d="M168.281 42.695L159.459 42.7157C158.8 42.717 158.411 41.9981 158.372 41.5198C158.325 40.9509 158.609 40.0911 159.327 40.0834L168.197 39.989C169.057 39.9799 169.519 39.0995 169.525 38.3909C169.53 37.6514 169.057 36.8058 168.202 36.7955L161.766 36.7141C160.17 36.6934 158.814 35.363 158.303 34.0429C157.692 32.4604 158.025 30.7266 159.118 29.5397C159.905 28.6838 160.857 28.0787 162.055 28.08L170.923 28.0878C171.673 28.0878 172.134 28.8946 172.082 29.4893C172.016 30.2444 171.47 30.768 170.655 30.7732L161.925 30.8197C161.108 30.8236 160.68 31.7286 160.672 32.3712C160.664 33.0965 161.09 34.0054 161.942 34.0158L168.21 34.0985C169.756 34.1192 171.238 35.1781 171.818 36.5886C172.369 37.9281 172.308 39.3994 171.522 40.6975C170.949 41.6439 169.72 42.6924 168.281 42.6963V42.695Z" fill="#5267AA" data-part="back" />
<path d="M183.583 35.3157L188.357 40.4227C188.874 40.976 188.932 41.6936 188.536 42.2392C188.173 42.7409 187.201 43.0253 186.69 42.4862L181.204 36.6888L178.642 36.7095L178.591 41.7272C178.584 42.4306 177.863 42.7525 177.284 42.746C176.719 42.7409 175.972 42.3323 175.971 41.5941L175.943 29.442C175.942 28.6611 176.484 28.1246 177.16 28.0509C177.79 27.9836 178.594 28.4038 178.6 29.1576L178.647 34.0874L181.29 34.0706L183.529 31.6452L186.385 28.6275C186.898 28.0845 187.603 27.7884 188.274 28.2771C188.825 28.6779 188.966 29.5455 188.495 30.2113L183.583 35.3157Z" fill="#5267AA" data-part="back" />
<path d="M200.045 31.6606L194.235 42.0556C193.873 42.7033 193.148 42.9296 192.576 42.6788C191.987 42.4202 191.517 41.6108 191.89 40.9346L198.478 28.9882C198.826 28.3586 199.352 28.0134 199.979 28.0004C200.604 27.9875 201.218 28.2655 201.57 28.8938L208.165 40.7071C208.566 41.4259 208.351 42.1745 207.748 42.5611C207.106 42.9723 206.274 42.7318 205.879 42.0297L200.047 31.6632L200.045 31.6606Z" fill="#64A4D4" data-part="logo" />
<path d="M214.542 41.249C214.545 42.1166 214.048 42.6635 213.359 42.7527C212.67 42.8419 211.853 42.3997 211.852 41.5606L211.835 29.459C211.835 28.6626 212.3 28.139 212.973 28.0498C213.644 27.9605 214.502 28.3458 214.505 29.1772L214.542 41.249Z" fill="#63A4D4" data-part="logo" />
<path d="M200.053 42.7181C201.084 42.7181 201.92 41.8822 201.92 40.8511C201.92 39.8201 201.084 38.9842 200.053 38.9842C199.022 38.9842 198.186 39.8201 198.186 40.8511C198.186 41.8822 199.022 42.7181 200.053 42.7181Z" fill="#5368A9" data-part="logo" />
<path d="M220.952 42.8778C220.422 42.8778 219.914 42.7964 219.43 42.6348C218.947 42.4719 218.565 42.2624 218.286 42.0038L218.655 41.2281C218.92 41.4608 219.258 41.6522 219.67 41.8047C220.081 41.9573 220.509 42.0336 220.952 42.0336C221.357 42.0336 221.685 41.987 221.936 41.8939C222.188 41.8009 222.373 41.6741 222.493 41.5112C222.612 41.3483 222.672 41.1647 222.672 40.9592C222.672 40.72 222.594 40.5286 222.438 40.3825C222.281 40.2364 222.08 40.1188 221.831 40.0296C221.583 39.9404 221.309 39.8628 221.01 39.7956C220.712 39.7296 220.412 39.6507 220.11 39.5615C219.809 39.4723 219.534 39.3573 219.286 39.2189C219.037 39.0793 218.837 38.8918 218.684 38.6565C218.532 38.4212 218.456 38.1174 218.456 37.7463C218.456 37.3752 218.55 37.0585 218.739 36.7572C218.927 36.456 219.22 36.2142 219.614 36.0319C220.008 35.8496 220.51 35.7578 221.12 35.7578C221.525 35.7578 221.926 35.8108 222.324 35.9168C222.722 36.0229 223.066 36.1754 223.358 36.3745L223.03 37.1697C222.731 36.9706 222.417 36.827 222.085 36.7365C221.754 36.6473 221.432 36.6021 221.12 36.6021C220.728 36.6021 220.408 36.6512 220.156 36.7508C219.904 36.8503 219.72 36.9822 219.604 37.149C219.487 37.3145 219.429 37.5006 219.429 37.7062C219.429 37.9519 219.507 38.1471 219.663 38.2932C219.818 38.4393 220.021 38.5557 220.269 38.641C220.518 38.7276 220.792 38.8052 221.09 38.875C221.389 38.9448 221.689 39.0224 221.99 39.109C222.292 39.1956 222.567 39.3081 222.815 39.4478C223.063 39.5874 223.264 39.7723 223.416 40.005C223.569 40.2364 223.645 40.5351 223.645 40.8997C223.645 41.2643 223.55 41.5772 223.357 41.8797C223.164 42.181 222.868 42.424 222.467 42.605C222.067 42.7873 221.561 42.8791 220.951 42.8791L220.952 42.8778Z" fill="#4B66AC" data-part="logo" />
<path d="M224.959 44.7233V37.5244H225.874V38.9466L225.815 40.1697L225.914 41.3927V44.7246H224.96L224.959 44.7233ZM227.754 42.8537C227.317 42.8537 226.918 42.7529 226.556 42.5499C226.194 42.3482 225.905 42.0482 225.691 41.65C225.475 41.2518 225.368 40.7553 225.368 40.158C225.368 39.5607 225.472 39.0642 225.68 38.666C225.889 38.2678 226.174 37.9704 226.535 37.7713C226.896 37.5722 227.302 37.4727 227.753 37.4727C228.27 37.4727 228.728 37.5851 229.125 37.8114C229.522 38.0377 229.837 38.3505 230.07 38.7513C230.301 39.1521 230.418 39.6215 230.418 40.158C230.418 40.6946 230.301 41.1652 230.07 41.5699C229.837 41.9745 229.523 42.2887 229.125 42.515C228.727 42.7412 228.27 42.8537 227.753 42.8537H227.754ZM227.674 42.0185C228.013 42.0185 228.315 41.9422 228.584 41.7897C228.853 41.6371 229.065 41.4199 229.22 41.138C229.376 40.8562 229.454 40.5304 229.454 40.158C229.454 39.7857 229.377 39.4534 229.22 39.178C229.064 38.9026 228.852 38.6893 228.584 38.5367C228.315 38.3842 228.013 38.3079 227.674 38.3079C227.335 38.3079 227.043 38.3842 226.774 38.5367C226.505 38.6893 226.293 38.9026 226.138 39.178C225.982 39.4534 225.904 39.7792 225.904 40.158C225.904 40.5368 225.982 40.8562 226.138 41.138C226.293 41.4199 226.507 41.6371 226.774 41.7897C227.043 41.9422 227.343 42.0185 227.674 42.0185Z" fill="#4B66AC" data-part="logo" />
<path d="M233.234 42.8537C232.842 42.8537 232.5 42.7878 232.205 42.6546C231.91 42.5227 231.682 42.3379 231.523 42.1025C231.364 41.8672 231.284 41.6009 231.284 41.3022C231.284 41.0036 231.351 40.7592 231.488 40.5265C231.624 40.2951 231.847 40.1089 232.154 39.9693C232.462 39.8296 232.878 39.7611 233.402 39.7611H235.072V40.4476H233.442C232.965 40.4476 232.643 40.5278 232.478 40.6868C232.312 40.8458 232.229 41.0385 232.229 41.2635C232.229 41.522 232.331 41.7289 232.537 41.8853C232.743 42.0418 233.027 42.1194 233.392 42.1194C233.756 42.1194 234.063 42.0392 234.332 41.8802C234.6 41.7211 234.794 41.4897 234.913 41.1846L235.102 41.8414C234.977 42.153 234.754 42.3999 234.436 42.5822C234.118 42.7645 233.717 42.8563 233.233 42.8563L233.234 42.8537ZM234.964 42.7943V41.6811L234.915 41.4716V39.5723C234.915 39.1677 234.797 38.8548 234.562 38.6324C234.326 38.41 233.973 38.2988 233.503 38.2988C233.191 38.2988 232.886 38.3505 232.587 38.4527C232.289 38.5548 232.037 38.6932 231.831 38.8651L231.433 38.1489C231.704 37.9303 232.031 37.7623 232.413 37.6472C232.794 37.5308 233.194 37.4727 233.611 37.4727C234.334 37.4727 234.891 37.6485 235.282 38.0002C235.672 38.3518 235.869 38.8884 235.869 39.6111V42.793H234.964V42.7943Z" fill="#4B66AC" data-part="logo" />
<path d="M239.935 42.8544C239.398 42.8544 238.919 42.738 238.499 42.5066C238.077 42.2752 237.747 41.9558 237.51 41.5524C237.27 41.1477 237.151 40.6836 237.151 40.16C237.151 39.6363 237.27 39.1722 237.51 38.7675C237.749 38.3628 238.078 38.0461 238.499 37.8172C238.92 37.5884 239.398 37.4746 239.935 37.4746C240.412 37.4746 240.839 37.569 241.212 37.7578C241.587 37.9465 241.877 38.2271 242.083 38.5981L241.357 39.0649C241.185 38.8063 240.974 38.6162 240.726 38.4934C240.478 38.3706 240.21 38.3098 239.926 38.3098C239.581 38.3098 239.273 38.3861 239.002 38.5387C238.73 38.6912 238.514 38.9046 238.355 39.18C238.196 39.4553 238.116 39.7812 238.116 40.16C238.116 40.5388 238.196 40.8659 238.355 41.1439C238.514 41.4218 238.73 41.6378 239.002 41.7903C239.273 41.9429 239.582 42.0192 239.926 42.0192C240.21 42.0192 240.478 41.9584 240.726 41.8356C240.974 41.7127 241.185 41.5227 241.357 41.2641L242.083 41.7218C241.877 42.0864 241.587 42.367 241.212 42.5622C240.837 42.7574 240.412 42.8557 239.935 42.8557V42.8544Z" fill="#4B66AC" data-part="logo" />
<path d="M245.583 42.8544C245.019 42.8544 244.524 42.738 244.096 42.5066C243.668 42.2752 243.337 41.9558 243.102 41.5524C242.867 41.1477 242.749 40.6836 242.749 40.16C242.749 39.6363 242.863 39.1722 243.092 38.7675C243.32 38.3628 243.635 38.0461 244.037 37.8172C244.438 37.5884 244.89 37.4746 245.394 37.4746C245.899 37.4746 246.355 37.5871 246.747 37.8133C247.137 38.0383 247.445 38.3551 247.666 38.7623C247.888 39.1696 248 39.6454 248 40.1897C248 40.2298 247.998 40.2763 247.994 40.3293C247.99 40.3824 247.987 40.4315 247.979 40.478H243.494V39.7915H247.481L247.093 40.0307C247.1 39.6919 247.03 39.3907 246.884 39.1257C246.738 38.8606 246.537 38.6537 246.283 38.5038C246.028 38.3551 245.73 38.2801 245.393 38.2801C245.056 38.2801 244.766 38.3551 244.507 38.5038C244.249 38.6524 244.047 38.8619 243.901 39.1295C243.755 39.3984 243.683 39.7049 243.683 40.0501V40.2091C243.683 40.5608 243.764 40.8737 243.926 41.149C244.088 41.4244 244.315 41.6378 244.607 41.7903C244.899 41.9429 245.234 42.0192 245.612 42.0192C245.923 42.0192 246.206 41.9662 246.462 41.8601C246.717 41.7541 246.941 41.5951 247.133 41.3831L247.661 41.9998C247.422 42.2777 247.126 42.4911 246.771 42.6359C246.417 42.782 246.02 42.8544 245.583 42.8544Z" fill="#4B66AC" data-part="logo" />
</g>
<defs>
<filter id="filter0_d_23_752" x="68.0557" y="969" width="91" height="91" filterUnits="userSpaceOnUse" color-interpolation-filters="sRGB">
<feFlood flood-opacity="0" result="BackgroundImageFix" />
<feColorMatrix in="SourceAlpha" type="matrix" values="0 0 0 0 0 0 0 0 0 0 0 0 0 0 0 0 0 0 127 0" result="hardAlpha" />
<feOffset dx="2" dy="2" />
<feGaussianBlur stdDeviation="2" />
<feComposite in2="hardAlpha" operator="out" />
<feColorMatrix type="matrix" values="0 0 0 0 0 0 0 0 0 0 0 0 0 0 0 0 0 0 0.25 0" />
<feBlend mode="normal" in2="BackgroundImageFix" result="effect1_dropShadow_23_752" />
<feBlend mode="normal" in="SourceGraphic" in2="effect1_dropShadow_23_752" result="shape" />
</filter>
<filter id="filter1_i_23_752" x="1944" y="805" width="12" height="12" filterUnits="userSpaceOnUse" color-interpolation-filters="sRGB">
<feFlood flood-opacity="0" result="BackgroundImageFix" />
<feBlend mode="normal" in="SourceGraphic" in2="BackgroundImageFix" result="shape" />
<feColorMatrix in="SourceAlpha" type="matrix" values="0 0 0 0 0 0 0 0 0 0 0 0 0 0 0 0 0 0 127 0" result="hardAlpha" />
<feOffset />
<feGaussianBlur stdDeviation="1.53157" />
<feComposite in2="hardAlpha" operator="arithmetic" k2="-1" k3="1" />
<feColorMatrix type="matrix" values="0 0 0 0 0 0 0 0 0 0 0 0 0 0 0 0 0 0 0.6 0" />
<feBlend mode="normal" in2="shape" result="effect1_innerShadow_23_752" />
</filter>
<filter id="filter2_i_23_752" x="1893" y="840" width="12" height="12" filterUnits="userSpaceOnUse" color-interpolation-filters="sRGB">
<feFlood flood-opacity="0" result="BackgroundImageFix" />
<feBlend mode="normal" in="SourceGraphic" in2="BackgroundImageFix" result="shape" />
<feColorMatrix in="SourceAlpha" type="matrix" values="0 0 0 0 0 0 0 0 0 0 0 0 0 0 0 0 0 0 127 0" result="hardAlpha" />
<feOffset />
<feGaussianBlur stdDeviation="1.53157" />
<feComposite in2="hardAlpha" operator="arithmetic" k2="-1" k3="1" />
<feColorMatrix type="matrix" values="0 0 0 0 0 0 0 0 0 0 0 0 0 0 0 0 0 0 0.6 0" />
<feBlend mode="normal" in2="shape" result="effect1_innerShadow_23_752" />
</filter>
<filter id="filter3_i_23_752" x="1873" y="233" width="12" height="12" filterUnits="userSpaceOnUse" color-interpolation-filters="sRGB">
<feFlood flood-opacity="0" result="BackgroundImageFix" />
<feBlend mode="normal" in="SourceGraphic" in2="BackgroundImageFix" result="shape" />
<feColorMatrix in="SourceAlpha" type="matrix" values="0 0 0 0 0 0 0 0 0 0 0 0 0 0 0 0 0 0 127 0" result="hardAlpha" />
<feOffset />
<feGaussianBlur stdDeviation="1.53157" />
<feComposite in2="hardAlpha" operator="arithmetic" k2="-1" k3="1" />
<feColorMatrix type="matrix" values="0 0 0 0 0 0 0 0 0 0 0 0 0 0 0 0 0 0 0.6 0" />
<feBlend mode="normal" in2="shape" result="effect1_innerShadow_23_752" />
</filter>
<filter id="filter4_i_23_752" x="1944" y="249" width="12" height="12" filterUnits="userSpaceOnUse" color-interpolation-filters="sRGB">
<feFlood flood-opacity="0" result="BackgroundImageFix" />
<feBlend mode="normal" in="SourceGraphic" in2="BackgroundImageFix" result="shape" />
<feColorMatrix in="SourceAlpha" type="matrix" values="0 0 0 0 0 0 0 0 0 0 0 0 0 0 0 0 0 0 127 0" result="hardAlpha" />
<feOffset />
<feGaussianBlur stdDeviation="1.53157" />
<feComposite in2="hardAlpha" operator="arithmetic" k2="-1" k3="1" />
<feColorMatrix type="matrix" values="0 0 0 0 0 0 0 0 0 0 0 0 0 0 0 0 0 0 0.6 0" />
<feBlend mode="normal" in2="shape" result="effect1_innerShadow_23_752" />
</filter>
<clipPath id="clip0_23_752">
<rect width="1959.11" height="1102" fill="white" />
</clipPath>
</defs>
</svg>