<svg xmlns="http://www.w3.org/2000/svg" viewBox="-1.00 1.00 124.03 124.00" width="124" height="124">
<defs><linearGradient id="g1" x1="0.979" y1="0.9211" x2="-0.2285" y2="-1.015"><stop offset="0" stop-color="#154777" stop-opacity="1"/><stop offset="1" stop-color="#2784DD" stop-opacity="1"/></linearGradient><linearGradient id="g2" x1="0.4921" y1="0.5685" x2="0.5001" y2="0.3508"><stop offset="0" stop-color="#FFFFFF" stop-opacity="0"/><stop offset="1" stop-color="#115CBB" stop-opacity="1"/></linearGradient></defs>
<g data-role="header" data-node="24:2562" data-name="Group 1171279133"><g transform="matrix(1,0,0,1,-1,1)"><g><g><g transform="matrix(-1,0,0,-1,124.0312,124)"><path d="M54.3698 0.0106187L69.8321 0C70.9704 4.54665 72.3631 9.0226 73.4007 13.6005C78.9187 14.8699 83.5564 16.9978 88.3379 20.0091C92.1735 17.4675 96.2262 15.231 100.137 12.8026C103.829 16.4778 107.691 19.9896 111.504 23.5385C110.773 25.3804 109.803 27.1598 108.928 28.9366C107.642 31.5463 106.376 34.1654 105.13 36.7939C107.145 41.4219 108.759 45.1591 109.917 50.1219C111.202 50.4502 112.482 50.9634 113.74 51.3942C117.099 52.5437 120.458 53.8299 123.867 54.8106L123.84 62.78C123.836 64.526 123.776 66.3034 123.936 68.043C123.967 68.6388 123.985 69.2391 124.031 69.8338C123.342 69.988 122.687 70.1758 122.02 70.4075C120.728 70.8907 119.356 71.2377 118.031 71.6248L111.093 73.6451C109.897 79.1258 107.411 84.3166 104.508 89.0734C106.485 93.2844 108.322 97.5642 110.261 101.794C109.173 103.02 107.954 104.158 106.795 105.319C104.714 107.387 102.655 109.475 100.617 111.585C96.2893 109.65 91.9595 107.648 87.7845 105.4C83.1223 108.189 77.9612 109.904 72.7448 111.3C72.4574 113.214 71.9325 115.119 71.482 117.003C70.9197 119.324 70.4035 121.654 69.9335 123.996L54.3013 124L52.3202 116.218C51.9078 114.566 51.5516 112.878 51.0145 111.262C45.9879 109.812 40.947 108.18 36.4365 105.462C33.5789 106.632 30.7929 107.978 28 109.291C26.4767 110.008 24.943 110.797 23.3534 111.354C19.9377 108.139 16.6775 104.706 13.3673 101.38C13.9976 99.9267 14.7993 98.535 15.5161 97.1207L19.5086 89.1699C16.7895 84.1198 14.7731 79.1057 13.1817 73.5972C8.81371 72.1872 4.39403 70.9556 0.0346987 69.5122C-0.0440767 64.5374 0.0376029 59.5482 0.025714 54.5712C4.33395 53.0293 8.85501 52.019 13.1892 50.5285C14.0751 47.553 15.0101 44.6183 16.2535 41.7691C17.0975 39.8355 18.1169 37.9845 19.0037 36.0705C16.9564 31.9027 14.8782 27.7502 12.7694 23.6132C14.1983 21.9441 15.8806 20.4177 17.4177 18.8426C19.5354 16.6727 21.6151 14.358 23.8986 12.3663C27.6619 14.9927 31.6269 17.3738 35.498 19.8379C40.036 17.1002 45.2396 14.758 50.4443 13.6842C51.7996 9.14149 52.9772 4.53903 54.3698 0.0106187Z" fill="#FFFFFF"/><path d="M54.3698 0.0106187L54.3691 -0.989381L53.6309 -0.988874L53.414 -0.283311L54.3698 0.0106187ZM69.8321 0L70.8022 -0.242855L70.6125 -1.00054L69.8314 -1L69.8321 0ZM73.4007 13.6005L72.4254 13.8215L72.5643 14.4342L73.1765 14.575L73.4007 13.6005ZM88.3379 20.0091L87.805 20.8553L88.3517 21.1996L88.8903 20.8427L88.3379 20.0091ZM100.137 12.8026L100.842 12.0938L100.281 11.5356L99.6089 11.953L100.137 12.8026ZM111.504 23.5385L112.434 23.9075L112.686 23.2721L112.186 22.8065L111.504 23.5385ZM108.928 28.9366L109.825 29.3786L109.825 29.3783L108.928 28.9366ZM105.13 36.7939L104.226 36.3655L104.032 36.7763L104.213 37.1931L105.13 36.7939ZM109.917 50.1219L108.943 50.3491L109.081 50.9404L109.67 51.0907L109.917 50.1219ZM113.74 51.3942L113.416 52.3402L113.417 52.3403L113.74 51.3942ZM123.867 54.8106L124.867 54.814L124.87 54.0583L124.144 53.8495L123.867 54.8106ZM123.84 62.78L122.84 62.7766L122.84 62.7775L123.84 62.78ZM123.936 68.043L124.934 67.9907L124.933 67.9711L124.931 67.9516L123.936 68.043ZM124.031 69.8338L124.25 70.8097L125.095 70.6206L125.028 69.7565L124.031 69.8338ZM122.02 70.4075L121.692 69.4627L121.681 69.4667L121.669 69.4709L122.02 70.4075ZM118.031 71.6248L118.311 72.5849L118.312 72.5846L118.031 71.6248ZM111.093 73.6451L110.814 72.6849L110.243 72.8511L110.116 73.4318L111.093 73.6451ZM104.508 89.0734L103.654 88.5524L103.374 89.0116L103.602 89.4985L104.508 89.0734ZM110.261 101.794L111.009 102.457L111.442 101.97L111.17 101.377L110.261 101.794ZM106.795 105.319L107.5 106.028L107.503 106.026L106.795 105.319ZM100.617 111.585L100.209 112.497L100.849 112.784L101.336 112.279L100.617 111.585ZM87.7845 105.4L88.2585 104.52L87.7585 104.251L87.2712 104.542L87.7845 105.4ZM72.7448 111.3L72.4862 110.334L71.8532 110.503L71.7559 111.151L72.7448 111.3ZM71.482 117.003L72.4539 117.239L72.4546 117.236L71.482 117.003ZM69.9335 123.996L69.9338 124.996L70.7527 124.995L70.9139 124.192L69.9335 123.996ZM54.3013 124L53.3322 124.247L53.524 125L54.3016 125L54.3013 124ZM52.3202 116.218L51.35 116.46L51.3511 116.465L52.3202 116.218ZM51.0145 111.262L51.9634 110.947L51.7974 110.447L51.2917 110.301L51.0145 111.262ZM36.4365 105.462L36.9526 104.606L36.5225 104.347L36.0577 104.537L36.4365 105.462ZM28 109.291L27.5745 108.386L27.5744 108.386L28 109.291ZM23.3534 111.354L22.668 112.082L23.1104 112.499L23.6839 112.298L23.3534 111.354ZM13.3673 101.38L12.4498 100.982L12.1799 101.605L12.6585 102.086L13.3673 101.38ZM15.5161 97.1207L16.4081 97.5727L16.4097 97.5694L15.5161 97.1207ZM19.5086 89.1699L20.4022 89.6186L20.6356 89.1538L20.3891 88.6958L19.5086 89.1699ZM13.1817 73.5972L14.1424 73.3197L13.9948 72.8089L13.4889 72.6456L13.1817 73.5972ZM0.0346987 69.5122L-0.965176 69.528L-0.95393 70.2382L-0.279637 70.4615L0.0346987 69.5122ZM0.025714 54.5712L-0.311257 53.6297L-0.97597 53.8676L-0.974283 54.5736L0.025714 54.5712ZM13.1892 50.5285L13.5144 51.4741L14.0008 51.3068L14.1476 50.8138L13.1892 50.5285ZM16.2535 41.7691L15.337 41.3691L15.337 41.3691L16.2535 41.7691ZM19.0037 36.0705L19.911 36.4909L20.1117 36.0579L19.9013 35.6296L19.0037 36.0705ZM12.7694 23.6132L12.0097 22.9629L11.5745 23.4712L11.8784 24.0674L12.7694 23.6132ZM17.4177 18.8426L16.702 18.1441L16.7019 18.1442L17.4177 18.8426ZM23.8986 12.3663L24.4709 11.5463L23.8301 11.0991L23.2413 11.6127L23.8986 12.3663ZM35.498 19.8379L34.961 20.6815L35.4839 21.0143L36.0145 20.6941L35.498 19.8379ZM50.4443 13.6842L50.6463 14.6636L51.2317 14.5429L51.4025 13.9701L50.4443 13.6842ZM54.3698 0.0106187L54.3705 1.01062L69.8328 1L69.8321 0L69.8314 -1L54.3691 -0.989381L54.3698 0.0106187ZM69.8321 0L68.862 0.242855C70.0259 4.89171 71.3844 9.2287 72.4254 13.8215L73.4007 13.6005L74.3759 13.3794C73.3417 8.8165 71.9148 4.20159 70.8022 -0.242855L69.8321 0ZM73.4007 13.6005L73.1765 14.575C78.5636 15.8143 83.0978 17.8908 87.805 20.8553L88.3379 20.0091L88.8708 19.163C84.0149 16.1048 79.2737 13.9254 73.6249 12.6259L73.4007 13.6005ZM88.3379 20.0091L88.8903 20.8427C92.7223 18.3035 96.6822 16.125 100.664 13.6521L100.137 12.8026L99.6089 11.953C95.7703 14.337 91.6246 16.6316 87.7855 19.1755L88.3379 20.0091ZM100.137 12.8026L99.4311 13.5113C103.139 17.2021 107.021 20.7323 110.823 24.2706L111.504 23.5385L112.186 22.8065C108.361 19.247 104.519 15.7534 100.842 12.0938L100.137 12.8026ZM111.504 23.5385L110.575 23.1695C109.863 24.9621 108.931 26.667 108.031 28.4949L108.928 28.9366L109.825 29.3783C110.675 27.6527 111.683 25.7987 112.434 23.9075L111.504 23.5385ZM108.928 28.9366L108.031 28.4947C106.743 31.1089 105.475 33.7325 104.226 36.3655L105.13 36.7939L106.034 37.2224C107.278 34.5983 108.541 31.9837 109.825 29.3786L108.928 28.9366ZM105.13 36.7939L104.213 37.1931C106.229 41.8237 107.809 45.4852 108.943 50.3491L109.917 50.1219L110.891 49.8946C109.71 44.8331 108.061 41.0202 106.047 36.3948L105.13 36.7939ZM109.917 50.1219L109.67 51.0907C110.904 51.4061 112.091 51.8862 113.416 52.3402L113.74 51.3942L114.064 50.4481C112.874 50.0405 111.501 49.4943 110.165 49.153L109.917 50.1219ZM113.74 51.3942L113.417 52.3403C116.728 53.4738 120.15 54.7821 123.591 55.7716L123.867 54.8106L124.144 53.8495C120.765 52.8778 117.469 51.6135 114.064 50.4481L113.74 51.3942ZM123.867 54.8106L122.867 54.8071L122.84 62.7766L123.84 62.78L124.84 62.7834L124.867 54.814L123.867 54.8106ZM123.84 62.78L122.84 62.7775C122.836 64.4801 122.774 66.3332 122.94 68.1345L123.936 68.043L124.931 67.9516C124.777 66.2737 124.836 64.5718 124.84 62.7826L123.84 62.78ZM123.936 68.043L122.937 68.0953C122.967 68.661 122.987 69.3009 123.034 69.9111L124.031 69.8338L125.028 69.7565C124.983 69.1773 124.967 68.6166 124.934 67.9907L123.936 68.043ZM124.031 69.8338L123.813 68.8579C123.085 69.0207 122.394 69.2192 121.692 69.4627L122.02 70.4075L122.347 71.3522C122.981 71.1325 123.599 70.9552 124.25 70.8097L124.031 69.8338ZM122.02 70.4075L121.669 69.4709C120.424 69.9369 119.124 70.2637 117.751 70.6649L118.031 71.6248L118.312 72.5846C119.588 72.2117 121.033 71.8445 122.37 71.344L122.02 70.4075ZM118.031 71.6248L117.752 70.6646L110.814 72.6849L111.093 73.6451L111.373 74.6052L118.311 72.5849L118.031 71.6248ZM111.093 73.6451L110.116 73.4318C108.953 78.7645 106.525 83.8487 103.654 88.5524L104.508 89.0734L105.361 89.5944C108.297 84.7845 110.842 79.4872 112.07 73.8583L111.093 73.6451ZM104.508 89.0734L103.602 89.4985C105.584 93.7171 107.393 97.938 109.352 102.211L110.261 101.794L111.17 101.377C109.25 97.1905 107.387 92.8516 105.413 88.6483L104.508 89.0734ZM110.261 101.794L109.513 101.13C108.451 102.328 107.28 103.418 106.087 104.613L106.795 105.319L107.503 106.026C108.628 104.898 109.895 103.713 111.009 102.457L110.261 101.794ZM106.795 105.319L106.09 104.61C104.005 106.682 101.94 108.775 99.8976 110.89L100.617 111.585L101.336 112.279C103.369 110.175 105.424 108.091 107.5 106.028L106.795 105.319ZM100.617 111.585L101.025 110.672C96.7028 108.74 92.4002 106.749 88.2585 104.52L87.7845 105.4L87.3106 106.281C91.5189 108.546 95.8758 110.561 100.209 112.497L100.617 111.585ZM87.7845 105.4L87.2712 104.542C82.7279 107.26 77.6724 108.946 72.4862 110.334L72.7448 111.3L73.0033 112.266C78.2501 110.862 83.5166 109.119 88.2979 106.259L87.7845 105.4ZM72.7448 111.3L71.7559 111.151C71.4769 113.01 70.9709 114.841 70.5095 116.77L71.482 117.003L72.4546 117.236C72.8942 115.398 73.4378 113.419 73.7337 111.448L72.7448 111.3ZM71.482 117.003L70.5102 116.768C69.9447 119.101 69.4257 121.445 68.953 123.799L69.9335 123.996L70.9139 124.192C71.3813 121.864 71.8947 119.546 72.4539 117.239L71.482 117.003ZM69.9335 123.996L69.9332 122.996L54.301 123L54.3013 124L54.3016 125L69.9338 124.996L69.9335 123.996ZM54.3013 124L55.2704 123.753L53.2893 115.971L52.3202 116.218L51.3511 116.465L53.3322 124.247L54.3013 124ZM52.3202 116.218L53.2904 115.976C52.8901 114.372 52.5166 112.611 51.9634 110.947L51.0145 111.262L50.0655 111.578C50.5866 113.145 50.9255 114.76 51.35 116.46L52.3202 116.218ZM51.0145 111.262L51.2917 110.301C46.273 108.854 41.3421 107.251 36.9526 104.606L36.4365 105.462L35.9204 106.319C40.5519 109.11 45.7028 110.771 50.7373 112.223L51.0145 111.262ZM36.4365 105.462L36.0577 104.537C33.1699 105.719 30.3532 107.08 27.5745 108.386L28 109.291L28.4255 110.196C31.2326 108.876 33.9878 107.545 36.8152 106.388L36.4365 105.462ZM28 109.291L27.5744 108.386C26.0058 109.124 24.5484 109.876 23.0229 110.41L23.3534 111.354L23.6839 112.298C25.3375 111.719 26.9475 110.891 28.4255 110.196L28 109.291ZM23.3534 111.354L24.0388 110.626C20.6385 107.425 17.4088 104.023 14.076 100.675L13.3673 101.38L12.6585 102.086C15.9461 105.389 19.2368 108.852 22.668 112.082L23.3534 111.354ZM13.3673 101.38L14.2847 101.778C14.9005 100.358 15.6572 99.0544 16.4081 97.5727L15.5161 97.1207L14.6241 96.6686C13.9414 98.0157 13.0948 99.4951 12.4498 100.982L13.3673 101.38ZM15.5161 97.1207L16.4097 97.5694L20.4022 89.6186L19.5086 89.1699L18.6149 88.7211L14.6224 96.6719L15.5161 97.1207ZM19.5086 89.1699L20.3891 88.6958C17.7052 83.7112 15.7151 78.7633 14.1424 73.3197L13.1817 73.5972L12.221 73.8748C13.8312 79.4481 15.8737 84.5285 18.6281 89.644L19.5086 89.1699ZM13.1817 73.5972L13.4889 72.6456C11.2942 71.9371 9.08714 71.2737 6.89463 70.6101C4.69849 69.9454 2.51501 69.28 0.349034 68.5629L0.0346987 69.5122L-0.279637 70.4615C1.91371 71.1877 4.11975 71.8599 6.31527 72.5243C8.51443 73.1899 10.7012 73.8473 12.8745 74.5489L13.1817 73.5972ZM0.0346987 69.5122L1.03457 69.4963C0.955883 64.5269 1.03767 59.5744 1.02571 54.5688L0.025714 54.5712L-0.974283 54.5736C-0.962463 59.5219 -1.04404 64.5479 -0.965176 69.528L0.0346987 69.5122ZM0.025714 54.5712L0.362685 55.5127C2.48186 54.7543 4.65945 54.1244 6.87246 53.4921C9.07569 52.8626 11.3172 52.2297 13.5144 51.4741L13.1892 50.5285L12.864 49.5828C10.727 50.3177 8.54089 50.9353 6.32299 51.5691C4.11486 52.2 1.87781 52.8462 -0.311257 53.6297L0.025714 54.5712ZM13.1892 50.5285L14.1476 50.8138C15.0312 47.846 15.9522 44.9598 17.1701 42.1691L16.2535 41.7691L15.337 41.3691C14.068 44.2769 13.1189 47.2599 12.2308 50.2431L13.1892 50.5285ZM16.2535 41.7691L17.1701 42.1691C17.5808 41.228 18.0365 40.3019 18.5072 39.3592C18.9747 38.423 19.4599 37.4647 19.911 36.4909L19.0037 36.0705L18.0964 35.6501C17.6608 36.5903 17.1928 37.5145 16.7179 38.4657C16.2462 39.4104 15.7702 40.3766 15.337 41.3691L16.2535 41.7691ZM19.0037 36.0705L19.9013 35.6296C17.8517 31.4574 15.7714 27.3004 13.6603 23.1591L12.7694 23.6132L11.8784 24.0674C13.9851 28.1999 16.061 32.348 18.1061 36.5114L19.0037 36.0705ZM12.7694 23.6132L13.529 24.2636C14.9327 22.624 16.5351 21.1789 18.1334 19.541L17.4177 18.8426L16.7019 18.1442C15.2262 19.6565 13.4639 21.2643 12.0097 22.9629L12.7694 23.6132ZM17.4177 18.8426L18.1333 19.541C20.2906 17.3307 22.3127 15.0764 24.5559 13.1199L23.8986 12.3663L23.2413 11.6127C20.9174 13.6396 18.7803 16.0147 16.702 18.1441L17.4177 18.8426ZM23.8986 12.3663L23.3263 13.1863C27.1127 15.8289 31.1196 18.2363 34.961 20.6815L35.498 19.8379L36.035 18.9943C32.1342 16.5113 28.2112 14.1566 24.4709 11.5463L23.8986 12.3663ZM35.498 19.8379L36.0145 20.6941C40.4877 17.9956 45.5844 15.7079 50.6463 14.6636L50.4443 13.6842L50.2422 12.7049C44.8948 13.808 39.5843 16.2048 34.9814 18.9816L35.498 19.8379ZM50.4443 13.6842L51.4025 13.9701C52.7871 9.32947 53.9202 4.87494 55.3256 0.304548L54.3698 0.0106187L53.414 -0.283311C52.0343 4.20312 50.8121 8.95351 49.486 13.3983L50.4443 13.6842Z" fill="url(#g2)"/></g><g transform="matrix(-1,0,0,-1,102.7813,102)"><path d="M38.3557 0.117321C38.4241 0.107148 38.4922 0.0938081 38.5611 0.0869168C40.2203 -0.0789133 42.0137 0.0228131 43.6697 0.141169C44.215 0.181096 44.7594 0.232281 45.3027 0.294741C45.8459 0.3572 46.3876 0.431042 46.9278 0.516144C47.4679 0.601247 48.0061 0.697613 48.5424 0.80514C49.0785 0.912667 49.6121 1.03147 50.1434 1.16142C50.6745 1.29126 51.2027 1.43204 51.7281 1.58387C52.2535 1.73569 52.7754 1.89857 53.2939 2.07227C53.8125 2.24587 54.3272 2.43019 54.838 2.62534C55.3487 2.8207 55.8553 3.02634 56.3576 3.24249C56.8598 3.45886 57.3573 3.68551 57.8501 3.92266C58.3429 4.15959 58.8306 4.40681 59.3131 4.6643C59.7956 4.9218 60.2724 5.18914 60.7437 5.46654C61.215 5.74373 61.6803 6.03076 62.1396 6.32752C62.5989 6.62429 63.0519 6.93046 63.4984 7.24593C63.9449 7.56162 64.3847 7.8864 64.8177 8.22046C65.2507 8.55442 65.6766 8.89735 66.0954 9.24914C66.5141 9.60093 66.9253 9.96124 67.3289 10.3302C67.576 10.5526 67.8203 10.7779 68.0617 11.0064C68.3033 11.2348 68.542 11.4662 68.778 11.7003C69.0137 11.9346 69.2466 12.1716 69.4766 12.4114C69.7068 12.6514 69.934 12.8941 70.1579 13.1397C70.382 13.3853 70.6031 13.6333 70.821 13.8843C71.0391 14.1353 71.254 14.389 71.4659 14.6452C71.6776 14.9014 71.8862 15.1601 72.0916 15.4213C72.297 15.6826 72.4993 15.9465 72.6984 16.2128C72.8972 16.4789 73.0929 16.7476 73.2854 17.0188C73.4779 17.2897 73.6669 17.5632 73.8526 17.8389C74.0384 18.1146 74.2205 18.3924 74.3993 18.6727C74.5783 18.9527 74.7538 19.235 74.9257 19.5196C75.0977 19.8041 75.2661 20.0907 75.431 20.3792C75.596 20.6678 75.7574 20.9584 75.9151 21.2509C76.0731 21.5434 76.2272 21.8379 76.3777 22.1343C76.5284 22.4305 76.6754 22.7287 76.8186 23.0287C76.9619 23.3285 77.1015 23.6301 77.2374 23.9335C77.3732 24.2369 77.5054 24.5418 77.634 24.8484C77.7623 25.155 77.887 25.4631 78.0079 25.7727C78.1288 26.0825 78.2458 26.3936 78.359 26.7062C78.4722 27.0186 78.5816 27.3325 78.6872 27.6478C78.7926 27.9629 78.8943 28.2793 78.9922 28.5971C79.09 28.9148 79.1837 29.2335 79.2736 29.5535C79.3638 29.8735 79.4497 30.1947 79.5319 30.5167C79.6139 30.8388 79.692 31.1619 79.7661 31.4859C79.8403 31.8099 79.9106 32.1348 79.9768 32.4604C80.0429 32.7862 80.1052 33.1128 80.1635 33.44C80.2217 33.7673 80.2759 34.0952 80.3261 34.4238C80.3761 34.7523 80.4223 35.0813 80.4645 35.4111C80.5065 35.741 80.5446 36.0713 80.5785 36.402C80.6125 36.7325 80.6425 37.0635 80.6685 37.3949C80.6943 37.7264 80.7161 38.0581 80.7339 38.39C81.2347 49.3132 77.7647 59.7861 70.3598 67.9134C70.1428 68.1542 69.9228 68.3922 69.6999 68.6278C69.4769 68.8632 69.2512 69.0957 69.0226 69.3256C68.7939 69.5554 68.5626 69.7825 68.3285 70.0068C68.0944 70.231 67.8576 70.4523 67.6181 70.6707C67.3785 70.8891 67.1363 71.1047 66.8915 71.317C66.6467 71.5295 66.3994 71.739 66.1493 71.9454C65.8993 72.1519 65.647 72.3553 65.3922 72.5555C65.1372 72.7558 64.88 72.9529 64.6202 73.1468C64.3604 73.3406 64.0984 73.5314 63.8339 73.7191C63.5695 73.9066 63.3028 74.0908 63.0338 74.2719C62.7649 74.453 62.4938 74.6307 62.2206 74.805C61.9473 74.9794 61.6719 75.1505 61.3943 75.3182C61.1169 75.4858 60.8375 75.6499 60.5559 75.8107C60.2745 75.9716 59.9911 76.129 59.7057 76.2828C59.4205 76.4366 59.1332 76.587 58.8441 76.7339C58.5551 76.8808 58.2645 77.0241 57.9719 77.1639C57.6794 77.3037 57.3852 77.4398 57.0896 77.5722C56.7937 77.7047 56.4961 77.8336 56.1971 77.9589C55.8981 78.0843 55.5978 78.2058 55.2957 78.3237C54.9938 78.4416 54.6904 78.5557 54.3856 78.6661C54.0809 78.7767 53.7748 78.8835 53.4675 78.9863C53.16 79.0893 52.8514 79.1887 52.5416 79.284C52.2318 79.3794 51.9208 79.4711 51.6088 79.5588C51.2967 79.6465 50.9836 79.7307 50.6696 79.8109C50.3555 79.891 50.0405 79.9674 49.7245 80.0398C49.4084 80.1122 49.0917 80.1808 48.774 80.2454C48.4563 80.3102 48.1379 80.371 47.8187 80.4279C47.4996 80.4849 47.1799 80.5378 46.8594 80.5868C46.5389 80.6359 46.218 80.6812 45.8964 80.7225C45.5749 80.7636 45.2529 80.8008 44.9304 80.8342C44.6079 80.8676 44.2851 80.897 43.9618 80.9225C43.6386 80.948 43.3152 80.9695 42.9915 80.9868C32.3141 81.2195 22.7154 78.3769 14.4043 71.5039C14.1549 71.2949 13.9079 71.0829 13.6635 70.8678C13.4193 70.6528 13.1775 70.4349 12.9385 70.214C12.6994 69.9931 12.463 69.7694 12.2293 69.5429C11.9957 69.3163 11.7648 69.0869 11.5367 68.8547C11.3087 68.6223 11.0833 68.3874 10.8608 68.1499C10.6384 67.9122 10.419 67.6719 10.2025 67.4288C9.98584 67.1858 9.77221 66.9402 9.56164 66.692C9.35107 66.444 9.14346 66.1934 8.9389 65.9403C8.73435 65.6872 8.53286 65.4314 8.33454 65.1733C8.13601 64.9153 7.94086 64.6549 7.74889 64.3921C7.5568 64.1294 7.36789 63.8642 7.18215 63.5968C6.99663 63.3294 6.81429 63.0598 6.63522 62.7882C6.45594 62.5164 6.28015 62.2424 6.10776 61.9665C5.93526 61.6904 5.76614 61.4122 5.60031 61.1322C5.43459 60.8519 5.27226 60.5698 5.11344 60.2859C4.95439 60.0017 4.79906 59.7157 4.64712 59.4278C4.49507 59.1402 4.34663 58.8505 4.2017 58.5591C4.05676 58.2676 3.91532 57.9745 3.77739 57.6796C3.63956 57.3848 3.50534 57.0883 3.37463 56.7901C3.24391 56.492 3.11691 56.1924 2.99352 55.8912C2.87013 55.5899 2.75036 55.2872 2.6343 54.9831C2.51824 54.679 2.40579 54.3736 2.29706 54.0668C2.18844 53.7601 2.08354 53.4519 1.98224 53.1425C1.88117 52.833 1.78371 52.5226 1.69007 52.211C1.59622 51.8992 1.5063 51.5864 1.42033 51.2725C1.33413 50.9585 1.25187 50.6435 1.17333 50.3276C1.09479 50.0118 1.02019 49.695 0.949524 49.3772C0.878642 49.0595 0.811697 48.7411 0.748691 48.4219C0.685465 48.1025 0.626288 47.7824 0.571048 47.4616C0.515698 47.141 0.464176 46.8196 0.416702 46.4976C0.369119 46.1757 0.325473 45.8532 0.285547 45.53C0.245839 45.2069 0.210071 44.8835 0.17813 44.5596C0.146955 44.2268 0.119827 43.8937 0.0966373 43.5605C0.0736661 43.2271 0.0547416 42.8934 0.0399744 42.5597C0.0252072 42.2258 0.0144874 41.8919 0.00792422 41.5577C0.00136103 41.2235 -0.00115412 40.8893 0.000486683 40.5551C0.00212748 40.221 0.0079246 39.8869 0.0178788 39.5529C0.027833 39.219 0.041834 38.8851 0.0597734 38.5515C0.0779315 38.2177 0.100139 37.8843 0.126501 37.5511C0.152863 37.2179 0.183272 36.8852 0.217838 36.5528C0.252404 36.2204 0.291017 35.8885 0.333787 35.5569C0.376557 35.2256 0.423375 34.8948 0.474239 34.5646C0.524995 34.2343 0.579908 33.9047 0.638977 33.5756C0.697936 33.2468 0.760943 32.9187 0.828107 32.5913C0.895051 32.2639 0.966043 31.9373 1.04119 31.6117C1.11634 31.2861 1.19542 30.9614 1.27856 30.6377C1.36169 30.314 1.44888 29.9915 1.53999 29.6699C1.631 29.3484 1.72595 29.028 1.82494 28.7088C1.92394 28.3896 2.02687 28.0717 2.13364 27.7552C2.24029 27.4384 2.35088 27.1231 2.46562 26.8093C2.58026 26.4953 2.69862 26.1827 2.8208 25.872C2.94309 25.5609 3.06922 25.2514 3.19917 24.9434C3.32901 24.6356 3.46257 24.3293 3.60007 24.0246C3.73757 23.72 3.87868 23.4172 4.02362 23.1161C4.16855 22.8148 4.3171 22.5154 4.46937 22.218C4.62163 21.9207 4.77751 21.6251 4.93721 21.3314C5.0967 21.0378 5.2598 20.7462 5.4265 20.4566C5.59331 20.1671 5.76363 19.8797 5.93733 19.5943C6.11126 19.3089 6.28857 19.0256 6.46928 18.7444C6.65021 18.4633 6.83442 18.1845 7.02212 17.9081C7.20972 17.6315 7.40082 17.3575 7.5952 17.0858C7.78958 16.814 7.98746 16.5446 8.18862 16.2777C8.38956 16.0108 8.5939 15.7464 8.80151 15.4845C9.00913 15.2226 9.21992 14.9633 9.43388 14.7065C16.9849 5.78749 26.7854 1.0587 38.3557 0.117321Z" fill="#1362C5"/><path d="M38.3557 0.117321L39.0167 8.24142L39.287 8.21943L39.5553 8.1795L38.3557 0.117321ZM38.5611 0.0869168L37.7505 -8.02362L37.7501 -8.02358L38.5611 0.0869168ZM43.6697 0.141169L44.2649 -7.98802L44.2578 -7.98853L44.2508 -7.98904L43.6697 0.141169ZM45.3027 0.294741L46.2338 -7.80285L46.2336 -7.80288L45.3027 0.294741ZM48.5424 0.80514L50.1454 -7.18664L50.1447 -7.18677L48.5424 0.80514ZM50.1434 1.16142L48.2068 9.07897L48.2076 9.07916L50.1434 1.16142ZM53.2939 2.07227L50.7046 9.80102L50.7065 9.80167L53.2939 2.07227ZM54.838 2.62534L57.7501 -4.98764L57.7473 -4.98873L54.838 2.62534ZM56.3576 3.24249L59.5827 -4.24324L59.5794 -4.24468L56.3576 3.24249ZM57.8501 3.92266L54.3155 11.2674L54.3182 11.2686L57.8501 3.92266ZM60.7437 5.46654L56.6095 12.4912L56.6112 12.4922L60.7437 5.46654ZM63.4984 7.24593L68.2039 0.590397L68.2018 0.58886L63.4984 7.24593ZM64.8177 8.22046L59.8392 14.6743L59.8394 14.6745L64.8177 8.22046ZM67.3289 10.3302L61.8296 16.3464L61.8529 16.3677L61.8764 16.3889L67.3289 10.3302ZM68.0617 11.0064L62.4585 16.9261L62.4626 16.93L68.0617 11.0064ZM68.778 11.7003L74.5241 5.91927L74.5187 5.91393L68.778 11.7003ZM69.4766 12.4114L75.3596 6.76973L75.3584 6.76845L69.4766 12.4114ZM70.1579 13.1397L64.1348 18.6315L64.1375 18.6345L70.1579 13.1397ZM70.821 13.8843L64.6665 19.2285L64.668 19.2302L70.821 13.8843ZM71.4659 14.6452L77.7496 9.45351L77.747 9.45032L71.4659 14.6452ZM72.0916 15.4213L78.4996 10.3839L78.4986 10.3826L72.0916 15.4213ZM72.6984 16.2128L79.2278 11.3338L79.2262 11.3317L72.6984 16.2128ZM73.2854 17.0188L66.6378 21.7356L66.6409 21.7399L73.2854 17.0188ZM73.8526 17.8389L67.0922 22.3924L67.093 22.3936L73.8526 17.8389ZM74.3993 18.6727L67.5283 23.0576L67.5311 23.0619L74.3993 18.6727ZM75.431 20.3792L68.3535 24.4224L68.3558 24.4264L75.431 20.3792ZM75.9151 21.2509L68.7409 25.1198L68.7431 25.1239L75.9151 21.2509ZM76.3777 22.1343L69.11 25.8245L69.1121 25.8288L76.3777 22.1343ZM76.8186 23.0287L69.4639 26.5424L69.4644 26.5435L76.8186 23.0287ZM77.2374 23.9335L69.798 27.2643L69.7985 27.2653L77.2374 23.9335ZM77.634 24.8484L85.1531 21.7018L85.1503 21.695L77.634 24.8484ZM78.0079 25.7727L85.6013 22.8099L85.6009 22.809L78.0079 25.7727ZM78.359 26.7062L70.6955 29.4824L70.6958 29.4833L78.359 26.7062ZM78.6872 27.6478L86.4169 25.0613L86.4164 25.0597L78.6872 27.6478ZM78.9922 28.5971L86.7823 26.1989L86.7818 26.1972L78.9922 28.5971ZM79.2736 29.5535L71.4266 31.7587L71.4278 31.763L79.2736 29.5535ZM79.5319 30.5167L87.4305 28.5045L87.4299 28.502L79.5319 30.5167ZM79.7661 31.4859L71.82 33.3021L71.8212 33.3072L79.7661 31.4859ZM79.9768 32.4604L87.9645 30.8377L87.9644 30.8371L79.9768 32.4604ZM80.1635 33.44L88.1885 32.0131L88.188 32.01L80.1635 33.44ZM80.3261 34.4238L88.3843 33.1975L88.3836 33.1927L80.3261 34.4238ZM80.4645 35.4111L88.5502 34.3817L88.5495 34.376L80.4645 35.4111ZM80.5785 36.402L72.4701 37.2335L72.4704 37.2364L80.5785 36.402ZM80.6685 37.3949L88.7949 36.7621L88.7944 36.7564L80.6685 37.3949ZM80.7339 38.39L88.8763 38.0167L88.8749 37.9847L88.8731 37.9527L80.7339 38.39ZM70.3598 67.9134L64.3347 62.4238L64.3201 62.4399L64.3055 62.456L70.3598 67.9134ZM69.6999 68.6278L75.6181 74.2325L75.6207 74.2298L69.6999 68.6278ZM68.3285 70.0068L73.9656 75.8942L73.9684 75.8915L68.3285 70.0068ZM67.6181 70.6707L73.1089 76.6948L73.1116 76.6923L67.6181 70.6707ZM66.8915 71.317L61.551 65.1593L61.5478 65.162L66.8915 71.317ZM66.1493 71.9454L60.9604 65.6594L60.9575 65.6618L66.1493 71.9454ZM65.3922 72.5555L70.4272 78.9655L70.4299 78.9634L65.3922 72.5555ZM63.8339 73.7191L68.5489 80.3679L68.5513 80.3662L63.8339 73.7191ZM63.0338 74.2719L58.482 67.5103L58.4814 67.5107L63.0338 74.2719ZM62.2206 74.805L57.8379 67.9325L57.834 67.935L62.2206 74.805ZM61.3943 75.3182L57.18 68.3412L57.1796 68.3415L61.3943 75.3182ZM60.5559 75.8107L56.5137 68.7327L56.5104 68.7345L60.5559 75.8107ZM59.7057 76.2828L55.8388 69.1074L55.8365 69.1087L59.7057 76.2828ZM58.8441 76.7339L55.1517 69.4673L55.1506 69.4678L58.8441 76.7339ZM57.9719 77.1639L54.4581 69.8092L54.4571 69.8097L57.9719 77.1639ZM57.0896 77.5722L60.4201 85.0117L60.4222 85.0108L57.0896 77.5722ZM56.1971 77.9589L53.0461 70.4417L53.0451 70.4421L56.1971 77.9589ZM55.2957 78.3237L52.3312 70.731L52.3303 70.7313L55.2957 78.3237ZM54.3856 78.6661L51.6101 71.0023L51.6052 71.0041L54.3856 78.6661ZM53.4675 78.9863L50.8816 71.2564L50.8775 71.2577L53.4675 78.9863ZM50.6696 79.8109L52.6833 87.7092L52.6885 87.7079L50.6696 79.8109ZM48.774 80.2454L47.1485 72.2582L47.1459 72.2587L48.774 80.2454ZM47.8187 80.4279L46.3887 72.4033L46.3856 72.4039L47.8187 80.4279ZM46.8594 80.5868L45.6274 72.5295L45.6247 72.5299L46.8594 80.5868ZM45.8964 80.7225L46.9307 88.8075L46.9331 88.8072L45.8964 80.7225ZM44.9304 80.8342L44.0916 72.7265L44.0888 72.7268L44.9304 80.8342ZM43.9618 80.9225L43.3213 72.7968L43.3208 72.7968L43.9618 80.9225ZM42.9915 80.9868L43.1691 89.1359L43.299 89.133L43.4289 89.1261L42.9915 80.9868ZM14.4043 71.5039L9.16842 77.7508L9.18907 77.7681L9.20983 77.7853L14.4043 71.5039ZM13.6635 70.8678L8.2773 76.9855L8.27866 76.9867L13.6635 70.8678ZM12.9385 70.214L7.40671 76.2004L7.40682 76.2005L12.9385 70.214ZM12.2293 69.5429L6.55261 75.3922L6.55817 75.3976L12.2293 69.5429ZM11.5367 68.8547L5.71998 74.5646L5.72133 74.566L11.5367 68.8547ZM10.8608 68.1499L4.90868 73.7186L4.91261 73.7227L10.8608 68.1499ZM10.2025 67.4288L16.2893 62.0077L16.2866 62.0046L10.2025 67.4288ZM9.56164 66.692L15.7771 61.4189L15.7748 61.4161L9.56164 66.692ZM8.33454 65.1733L14.7983 60.2076L14.7937 60.2016L8.33454 65.1733ZM7.74889 64.3921L14.3303 59.5835L14.329 59.5817L7.74889 64.3921ZM7.18215 63.5968L0.485641 68.2438L0.487317 68.2462L7.18215 63.5968ZM6.63522 62.7882L13.4403 58.3017L13.4395 58.3004L6.63522 62.7882ZM6.10776 61.9665L-0.804846 66.2855L-0.804538 66.286L6.10776 61.9665ZM5.60031 61.1322L-1.41575 65.281L-1.41312 65.2855L5.60031 61.1322ZM5.11344 60.2859L12.2272 56.307L12.2262 56.3051L5.11344 60.2859ZM4.64712 59.4278L11.8558 55.6236L11.8535 55.6191L4.64712 59.4278ZM4.2017 58.5591L-3.09693 62.1879L-3.09639 62.1889L4.2017 58.5591ZM3.77739 57.6796L-3.60641 61.1318L-3.60585 61.133L3.77739 57.6796ZM3.37463 56.7901L10.8398 53.5176L10.8393 53.5166L3.37463 56.7901ZM2.29706 54.0668L-5.38632 56.7878L-5.38576 56.7893L2.29706 54.0668ZM1.98224 53.1425L-5.76589 55.6732L-5.76428 55.6781L1.98224 53.1425ZM1.69007 52.211L9.49628 49.8655L9.495 49.8613L1.69007 52.211ZM1.42033 51.2725L9.2816 49.1188L9.28058 49.1151L1.42033 51.2725ZM1.17333 50.3276L9.08348 48.3611L9.08332 48.3604L1.17333 50.3276ZM0.949524 49.3772L8.90612 47.6078L8.90482 47.602L0.949524 49.3772ZM0.748691 48.4219L8.74533 46.8434L8.7445 46.8392L0.748691 48.4219ZM0.571048 47.4616L8.6038 46.0785L8.60318 46.075L0.571048 47.4616ZM0.416702 46.4976L8.4805 45.3088L8.48004 45.3058L0.416702 46.4976ZM0.285547 45.53L-7.80455 46.5242L-7.80388 46.5296L0.285547 45.53ZM0.17813 44.5596L-7.93728 45.3199L-7.93542 45.3397L-7.93347 45.3595L0.17813 44.5596ZM0.0966373 43.5605L-8.03504 44.1208L-8.03464 44.1265L0.0966373 43.5605ZM0.0399744 42.5597L-8.10301 42.9199L-8.10301 42.92L0.0399744 42.5597ZM0.0597734 38.5515L-8.07915 38.1088L-8.07942 38.1139L0.0597734 38.5515ZM0.333787 35.5569L-7.75009 34.5134L-7.75017 34.5141L0.333787 35.5569ZM0.474239 34.5646L8.53019 35.8054L8.53059 35.8028L0.474239 34.5646ZM0.638977 33.5756L8.66167 35.0159L8.66197 35.0142L0.638977 33.5756ZM0.828107 32.5913L8.81277 34.2293L8.81382 34.2242L0.828107 32.5913ZM1.53999 29.6699L9.38224 31.8918L9.38274 31.8901L1.53999 29.6699ZM2.13364 27.7552L9.85718 30.3599L9.85853 30.3559L2.13364 27.7552ZM2.46562 26.8093L10.1209 29.6083L10.1224 29.6042L2.46562 26.8093ZM2.8208 25.872L10.4065 28.8544L10.4067 28.854L2.8208 25.872ZM3.19917 24.9434L10.7092 28.1117L10.7093 28.1113L3.19917 24.9434ZM4.02362 23.1161L11.3682 26.651L11.3687 26.6499L4.02362 23.1161ZM4.46937 22.218L-2.78549 18.5025L-2.78604 18.5036L4.46937 22.218ZM4.93721 21.3314L12.098 25.2252L12.0996 25.2222L4.93721 21.3314ZM5.4265 20.4566L-1.63551 16.3864L-1.63799 16.3907L5.4265 20.4566ZM5.93733 19.5943L-1.02293 15.3525L-1.0253 15.3564L5.93733 19.5943ZM6.46928 18.7444L-0.384868 14.3332L-0.387294 14.337L6.46928 18.7444ZM7.02212 17.9081L13.7653 22.4871L13.7674 22.4841L7.02212 17.9081ZM7.5952 17.0858L14.2245 21.8283L14.2254 21.827L7.5952 17.0858ZM8.18862 16.2777L14.6978 21.1836L14.7004 21.1802L8.18862 16.2777ZM9.43388 14.7065L3.21299 9.43981L3.19259 9.46392L3.17237 9.48818L9.43388 14.7065ZM38.3557 0.117321L39.5553 8.1795C39.6303 8.16835 39.6925 8.15822 39.7205 8.15366C39.7281 8.15241 39.7351 8.15127 39.7398 8.1505C39.7455 8.14957 39.7476 8.14922 39.7503 8.14877C39.7553 8.14796 39.7519 8.14852 39.7452 8.14959C39.7325 8.15162 39.6891 8.15852 39.6295 8.16679C39.5687 8.17521 39.4804 8.18659 39.3722 8.19741L38.5611 0.0869168L37.7501 -8.02358C37.476 -7.99617 37.2559 -7.96136 37.1712 -7.94782C37.1474 -7.94401 37.1269 -7.94066 37.1148 -7.93867C37.0958 -7.93556 37.1007 -7.93636 37.0934 -7.93516C37.0872 -7.93415 37.1153 -7.93879 37.156 -7.94486L38.3557 0.117321ZM38.5611 0.0869168L39.3717 8.19746C40.2553 8.10915 41.4111 8.15148 43.0886 8.27138L43.6697 0.141169L44.2508 -7.98904C42.6163 -8.10586 40.1853 -8.26697 37.7505 -8.02362L38.5611 0.0869168ZM43.6697 0.141169L43.0745 8.27036C43.5078 8.30208 43.9403 8.34275 44.3718 8.39236L45.3027 0.294741L46.2336 -7.80288C45.5785 -7.87819 44.9222 -7.93989 44.2649 -7.98802L43.6697 0.141169ZM45.3027 0.294741L44.3717 8.39234C44.8015 8.44176 45.2306 8.50025 45.6592 8.56777L46.9278 0.516144L48.1963 -7.53548C47.5446 -7.63816 46.8904 -7.72736 46.2338 -7.80285L45.3027 0.294741ZM46.9278 0.516144L45.6592 8.56777C46.0871 8.63519 46.514 8.71162 46.9401 8.79705L48.5424 0.80514L50.1447 -7.18677C49.4982 -7.31639 48.8487 -7.43269 48.1963 -7.53548L46.9278 0.516144ZM48.5424 0.80514L46.9395 8.79692C47.363 8.88187 47.7854 8.97588 48.2068 9.07897L50.1434 1.16142L52.08 -6.75612C51.4389 -6.91294 50.7941 -7.05653 50.1454 -7.18664L48.5424 0.80514ZM50.1434 1.16142L48.2076 9.07916C48.6296 9.18233 49.0488 9.29405 49.4652 9.41439L51.7281 1.58387L53.991 -6.24666C53.3567 -6.42998 52.7194 -6.59981 52.0792 -6.75632L50.1434 1.16142ZM51.7281 1.58387L49.4652 9.41439C49.88 9.53426 50.2931 9.66315 50.7046 9.80102L53.2939 2.07227L55.8832 -5.65647C55.2577 -5.86602 54.627 -6.06287 53.991 -6.24666L51.7281 1.58387ZM53.2939 2.07227L50.7065 9.80167C51.1178 9.93936 51.5252 10.0853 51.9287 10.2394L54.838 2.62534L57.7473 -4.98873C57.1292 -5.22488 56.5071 -5.44762 55.8812 -5.65713L53.2939 2.07227ZM54.838 2.62534L51.9258 10.2383C52.3336 10.3943 52.7369 10.5581 53.1357 10.7297L56.3576 3.24249L59.5794 -4.24468C58.9736 -4.50537 58.3637 -4.75291 57.7501 -4.98764L54.838 2.62534ZM56.3576 3.24249L53.1324 10.7282C53.5317 10.9003 53.9261 11.08 54.3155 11.2674L57.8501 3.92266L61.3847 -3.42204C60.7886 -3.70895 60.1878 -3.98257 59.5827 -4.24324L56.3576 3.24249ZM57.8501 3.92266L54.3182 11.2686C54.708 11.4561 55.0938 11.6516 55.4755 11.8553L59.3131 4.6643L63.1507 -2.52672C62.5674 -2.83799 61.9778 -3.13687 61.3821 -3.42332L57.8501 3.92266ZM59.3131 4.6643L55.4755 11.8553C55.8583 12.0596 56.2362 12.2715 56.6095 12.4912L60.7437 5.46654L64.878 -1.55812C64.3086 -1.89323 63.7329 -2.21602 63.1507 -2.52672L59.3131 4.6643ZM60.7437 5.46654L56.6112 12.4922C56.9841 12.7115 57.3524 12.9387 57.7162 13.1738L62.1396 6.32752L66.563 -0.518743C66.0082 -0.877234 65.4459 -1.22408 64.8763 -1.55912L60.7437 5.46654ZM62.1396 6.32752L57.7162 13.1738C58.0808 13.4094 58.4405 13.6525 58.7951 13.903L63.4984 7.24593L68.2018 0.58886C67.6634 0.208473 67.1171 -0.160783 66.563 -0.518743L62.1396 6.32752ZM63.4984 7.24593L58.7929 13.9015C59.1475 14.1521 59.4962 14.4097 59.8392 14.6743L64.8177 8.22046L69.7963 1.76662C69.2732 1.36311 68.7424 0.971105 68.2039 0.590397L63.4984 7.24593ZM64.8177 8.22046L59.8394 14.6745C60.1828 14.9393 60.5205 15.2112 60.8523 15.49L66.0954 9.24914L71.3385 3.00831C70.8328 2.58351 70.3186 2.1695 69.7961 1.76644L64.8177 8.22046ZM66.0954 9.24914L60.8523 15.49C61.1844 15.769 61.5101 16.0544 61.8296 16.3464L67.3289 10.3302L72.8283 4.31399C72.3405 3.86807 71.8438 3.43288 71.3385 3.00831L66.0954 9.24914ZM67.3289 10.3302L61.8764 16.3889C62.0737 16.5664 62.2677 16.7454 62.4585 16.9261L68.0617 11.0064L73.6649 5.08676C73.3729 4.8104 73.0784 4.53873 72.7815 4.27152L67.3289 10.3302ZM68.0617 11.0064L62.4626 16.93C62.6547 17.1115 62.8461 17.297 63.0372 17.4866L68.778 11.7003L74.5187 5.91393C74.2379 5.63534 73.952 5.35817 73.6608 5.08289L68.0617 11.0064ZM68.778 11.7003L63.0318 17.4813C63.2218 17.6701 63.4095 17.8611 63.5949 18.0543L69.4766 12.4114L75.3584 6.76845C75.0837 6.48213 74.8056 6.19907 74.5241 5.91927L68.778 11.7003ZM69.4766 12.4114L63.5936 18.0531C63.7784 18.2457 63.9588 18.4385 64.1348 18.6315L70.1579 13.1397L76.181 7.64782C75.9092 7.34973 75.6352 7.05708 75.3596 6.76973L69.4766 12.4114ZM70.1579 13.1397L64.1375 18.6345C64.318 18.8323 64.4943 19.0302 64.6665 19.2285L70.821 13.8843L76.9754 8.54005C76.7119 8.23654 76.446 7.93826 76.1783 7.6449L70.1579 13.1397ZM70.821 13.8843L64.668 19.2302C64.842 19.4305 65.0143 19.6337 65.1849 19.84L71.4659 14.6452L77.747 9.45032C77.4938 9.14427 77.2362 8.84019 76.9739 8.53833L70.821 13.8843ZM71.4659 14.6452L65.1823 19.8369C65.3526 20.0431 65.5201 20.2508 65.6846 20.4599L72.0916 15.4213L78.4986 10.3826C78.2523 10.0694 78.0025 9.75967 77.7496 9.45351L71.4659 14.6452ZM72.0916 15.4213L65.6836 20.4586C65.8475 20.6671 66.0098 20.8789 66.1705 21.0939L72.6984 16.2128L79.2262 11.3317C78.9888 11.0142 78.7466 10.6981 78.4996 10.3839L72.0916 15.4213ZM72.6984 16.2128L66.1689 21.0918C66.3283 21.305 66.4846 21.5196 66.6378 21.7356L73.2854 17.0188L79.9329 12.3019C79.7013 11.9756 79.4662 11.6529 79.2278 11.3338L72.6984 16.2128ZM73.2854 17.0188L66.6409 21.7399C66.7925 21.9532 66.9429 22.1707 67.0922 22.3924L73.8526 17.8389L80.6131 13.2855C80.3909 12.9556 80.1633 12.6262 79.9298 12.2976L73.2854 17.0188ZM73.8526 17.8389L67.093 22.3936C67.2402 22.6122 67.3853 22.8334 67.5283 23.0576L74.3993 18.6727L81.2703 14.2878C81.0557 13.9515 80.8365 13.617 80.6123 13.2842L73.8526 17.8389ZM74.3993 18.6727L67.5311 23.0619C67.6732 23.2843 67.8128 23.5089 67.9499 23.7356L74.9257 19.5196L81.9016 15.3035C81.6947 14.9612 81.4834 14.6211 81.2676 14.2835L74.3993 18.6727ZM74.9257 19.5196L67.9499 23.7356C68.0874 23.9632 68.222 24.1922 68.3535 24.4224L75.431 20.3792L82.5085 16.3361C82.3103 15.9892 82.1079 15.6449 81.9016 15.3035L74.9257 19.5196ZM75.431 20.3792L68.3558 24.4264C68.4863 24.6545 68.6146 24.8857 68.7409 25.1198L75.9151 21.2509L83.0894 17.3821C82.9001 17.0312 82.7058 16.681 82.5062 16.3321L75.431 20.3792ZM75.9151 21.2509L68.7431 25.1239C68.8677 25.3546 68.9899 25.5881 69.11 25.8245L76.3777 22.1343L83.6455 18.4441C83.4645 18.0877 83.2785 17.7322 83.0871 17.3779L75.9151 21.2509ZM76.3777 22.1343L69.1121 25.8288C69.2322 26.065 69.3495 26.3029 69.4639 26.5424L76.8186 23.0287L84.1733 19.5149C84.0012 19.1546 83.8245 18.7961 83.6433 18.4398L76.3777 22.1343ZM76.8186 23.0287L69.4644 26.5435C69.5787 26.7825 69.6899 27.0228 69.798 27.2643L77.2374 23.9335L84.6767 20.6027C84.5131 20.2374 84.3452 19.8745 84.1729 19.5139L76.8186 23.0287ZM77.2374 23.9335L69.7985 27.2653C69.9073 27.5082 70.0137 27.7537 70.1178 28.0019L77.634 24.8484L85.1503 21.695C84.9971 21.33 84.8392 20.9655 84.6763 20.6017L77.2374 23.9335ZM77.634 24.8484L70.1149 27.995C70.2187 28.2431 70.3187 28.4901 70.4149 28.7365L78.0079 25.7727L85.6009 22.809C85.4553 22.436 85.3059 22.067 85.1531 21.7018L77.634 24.8484ZM78.0079 25.7727L70.4145 28.7356C70.5113 28.9837 70.605 29.2326 70.6955 29.4824L78.359 26.7062L86.0226 23.9299C85.8867 23.5547 85.7462 23.1814 85.6013 22.8099L78.0079 25.7727ZM78.359 26.7062L70.6958 29.4833C70.786 29.7324 70.8735 29.9833 70.958 30.2358L78.6872 27.6478L86.4164 25.0597C86.2898 24.6817 86.1584 24.3047 86.0223 23.929L78.359 26.7062ZM78.6872 27.6478L70.9575 30.2342C71.0419 30.4866 71.1236 30.7408 71.2025 30.997L78.9922 28.5971L86.7818 26.1972C86.6649 25.8179 86.5434 25.4392 86.4169 25.0613L78.6872 27.6478ZM78.9922 28.5971L71.202 30.9953C71.2797 31.2475 71.3545 31.5019 71.4266 31.7587L79.2736 29.5535L87.1206 27.3483C87.0129 26.9651 86.9003 26.582 86.7823 26.1989L78.9922 28.5971ZM79.2736 29.5535L71.4278 31.763C71.499 32.0155 71.5676 32.2717 71.6339 32.5315L79.5319 30.5167L87.4299 28.502C87.3319 28.1177 87.2285 27.7316 87.1194 27.344L79.2736 29.5535ZM79.5319 30.5167L71.6332 32.529C71.6988 32.7862 71.761 33.044 71.82 33.3021L79.7661 31.4859L87.7121 29.6697C87.623 29.2798 87.5291 28.8913 87.4305 28.5045L79.5319 30.5167ZM79.7661 31.4859L71.8212 33.3072C71.8803 33.5652 71.9363 33.8241 71.9891 34.0837L79.9768 32.4604L87.9644 30.8371C87.8848 30.4455 87.8003 30.0546 87.7109 29.6646L79.7661 31.4859ZM79.9768 32.4604L71.989 34.0832C72.042 34.3442 72.092 34.6066 72.1389 34.87L80.1635 33.44L88.188 32.01C88.1183 31.619 88.0439 31.2281 87.9645 30.8377L79.9768 32.4604ZM80.1635 33.44L72.1384 34.8669C72.1852 35.1302 72.2287 35.3929 72.2687 35.655L80.3261 34.4238L88.3836 33.1927C88.3232 32.7976 88.2581 32.4044 88.1885 32.0131L80.1635 33.44ZM80.3261 34.4238L72.268 35.6501C72.3084 35.9159 72.3456 36.1812 72.3795 36.4462L80.4645 35.4111L88.5495 34.376C88.4989 33.9814 88.4438 33.5887 88.3843 33.1975L80.3261 34.4238ZM80.4645 35.4111L72.3788 36.4406C72.4127 36.7066 72.4431 36.9708 72.4701 37.2335L80.5785 36.402L88.6869 35.5705C88.646 35.1718 88.6003 34.7755 88.5502 34.3817L80.4645 35.4111ZM80.5785 36.402L72.4704 37.2364C72.4976 37.5008 72.5216 37.7664 72.5426 38.0333L80.6685 37.3949L88.7944 36.7564C88.7633 36.3606 88.7274 35.9643 88.6866 35.5675L80.5785 36.402ZM80.6685 37.3949L72.5422 38.0276C72.5629 38.2933 72.5804 38.5598 72.5947 38.8272L80.7339 38.39L88.8731 37.9527C88.8519 37.5564 88.8258 37.1595 88.7949 36.7621L80.6685 37.3949ZM80.7339 38.39L72.5915 38.7632C73.0007 47.688 70.1811 56.0071 64.3347 62.4238L70.3598 67.9134L76.385 73.403C85.3484 63.5651 89.4687 50.9384 88.8763 38.0167L80.7339 38.39ZM70.3598 67.9134L64.3055 62.456C64.1339 62.6464 63.9585 62.8362 63.7791 63.0258L69.6999 68.6278L75.6207 74.2298C75.8871 73.9482 76.1517 73.662 76.4141 73.3708L70.3598 67.9134ZM69.6999 68.6278L63.7817 63.0231C63.6051 63.2095 63.4258 63.3942 63.2439 63.5771L69.0226 69.3256L74.8013 75.074C75.0765 74.7973 75.3488 74.5168 75.6181 74.2325L69.6999 68.6278ZM69.0226 69.3256L63.2439 63.5771C63.0609 63.7611 62.8758 63.9428 62.6886 64.1222L68.3285 70.0068L73.9684 75.8915C74.2494 75.6222 74.527 75.3497 74.8013 75.074L69.0226 69.3256ZM68.3285 70.0068L62.6914 64.1194C62.5052 64.2978 62.3162 64.4743 62.1247 64.6491L67.6181 70.6707L73.1116 76.6923C73.3989 76.4302 73.6836 76.1642 73.9656 75.8942L68.3285 70.0068ZM67.6181 70.6707L62.1274 64.6466C61.9356 64.8214 61.7435 64.9923 61.551 65.1593L66.8915 71.317L72.232 77.4746C72.5291 77.217 72.8213 76.9569 73.1089 76.6948L67.6181 70.6707ZM66.8915 71.317L61.5478 65.162C61.3533 65.3309 61.1576 65.4966 60.9604 65.6594L66.1493 71.9454L71.3381 78.2314C71.6411 77.9813 71.94 77.7281 72.2351 77.4719L66.8915 71.317ZM66.1493 71.9454L60.9575 65.6618C60.7589 65.8259 60.558 65.9878 60.3546 66.1477L65.3922 72.5555L70.4299 78.9634C70.736 78.7227 71.0398 78.4779 71.3411 78.2289L66.1493 71.9454ZM65.3922 72.5555L60.3572 66.1456C60.1539 66.3054 59.9502 66.4614 59.7459 66.6138L64.6202 73.1468L69.4945 79.6797C69.8098 79.4445 70.1206 79.2063 70.4272 78.9655L65.3922 72.5555ZM64.6202 73.1468L59.7459 66.6138C59.5366 66.77 59.3269 66.9227 59.1166 67.0719L63.8339 73.7191L68.5513 80.3662C68.8699 80.1401 69.1842 79.9112 69.4945 79.6797L64.6202 73.1468ZM63.8339 73.7191L59.1189 67.0703C58.9094 67.2188 58.6972 67.3655 58.482 67.5103L63.0338 74.2719L67.5855 81.0336C67.9085 80.8161 68.2296 80.5943 68.5489 80.3679L63.8339 73.7191ZM63.0338 74.2719L58.4814 67.5107C58.2672 67.6549 58.0527 67.7956 57.8379 67.9325L62.2206 74.805L66.6032 81.6774C66.9349 81.4659 67.2626 81.251 67.5861 81.0331L63.0338 74.2719ZM62.2206 74.805L57.834 67.935C57.6178 68.0731 57.3998 68.2085 57.18 68.3412L61.3943 75.3182L65.6085 82.2952C65.944 82.0926 66.2769 81.8858 66.6071 81.6749L62.2206 74.805ZM61.3943 75.3182L57.1796 68.3415C56.96 68.4742 56.7381 68.6045 56.5137 68.7327L60.5559 75.8107L64.5982 82.8887C64.9369 82.6952 65.2737 82.4974 65.6089 82.2949L61.3943 75.3182ZM60.5559 75.8107L56.5104 68.7345C56.2873 68.8621 56.0634 68.9864 55.8388 69.1074L59.7057 76.2828L63.5725 83.4581C63.9187 83.2716 64.2617 83.0811 64.6014 82.8868L60.5559 75.8107ZM59.7057 76.2828L55.8365 69.1087C55.6101 69.2308 55.3817 69.3504 55.1517 69.4673L58.8441 76.7339L62.5366 84.0005C62.8848 83.8236 63.2309 83.6424 63.5748 83.4569L59.7057 76.2828ZM58.8441 76.7339L55.1506 69.4678C54.9209 69.5846 54.6902 69.6983 54.4581 69.8092L57.9719 77.1639L61.4856 84.5186C61.8388 84.3499 62.1894 84.177 62.5377 84L58.8441 76.7339ZM57.9719 77.1639L54.4571 69.8097C54.2259 69.9202 53.9925 70.0282 53.757 70.1337L57.0896 77.5722L60.4222 85.0108C60.7779 84.8514 61.1328 84.6872 61.4867 84.5181L57.9719 77.1639ZM57.0896 77.5722L53.759 70.1328C53.5238 70.2381 53.2862 70.341 53.0461 70.4417L56.1971 77.9589L59.3481 85.4762C59.7061 85.3261 60.0636 85.1713 60.4201 85.0117L57.0896 77.5722ZM56.1971 77.9589L53.0451 70.4421C52.8092 70.541 52.5713 70.6372 52.3312 70.731L55.2957 78.3237L58.2602 85.9165C58.6242 85.7744 58.987 85.6276 59.349 85.4758L56.1971 77.9589ZM55.2957 78.3237L52.3303 70.7313C52.0928 70.8241 51.8527 70.9144 51.6101 71.0023L54.3856 78.6661L57.1612 86.3299C57.5281 86.1971 57.8948 86.0592 58.2612 85.9161L55.2957 78.3237ZM54.3856 78.6661L51.6052 71.0041C51.3642 71.0915 51.123 71.1756 50.8816 71.2564L53.4675 78.9863L56.0533 86.7162C56.4267 86.5913 56.7976 86.4619 57.1661 86.3281L54.3856 78.6661ZM53.4675 78.9863L50.8775 71.2577C50.6315 71.3402 50.3867 71.419 50.143 71.494L52.5416 79.284L54.9402 87.0741C55.3161 86.9583 55.6885 86.8384 56.0574 86.7148L53.4675 78.9863ZM52.5416 79.284L50.143 71.494C49.896 71.57 49.6493 71.6427 49.403 71.712L51.6088 79.5588L53.8146 87.4056C54.1923 87.2994 54.5676 87.1888 54.9402 87.0741L52.5416 79.284ZM51.6088 79.5588L49.403 71.712C49.1511 71.7828 48.9004 71.8501 48.6506 71.914L50.6696 79.8109L52.6885 87.7079C53.0669 87.6112 53.4422 87.5103 53.8146 87.4056L51.6088 79.5588ZM50.6696 79.8109L48.6558 71.9127C48.4043 71.9768 48.1536 72.0375 47.9039 72.0947L49.7245 80.0398L51.545 87.9848C51.9273 87.8972 52.3068 87.8052 52.6833 87.7092L50.6696 79.8109ZM49.7245 80.0398L47.9039 72.0947C47.6517 72.1525 47.4 72.207 47.1485 72.2582L48.774 80.2454L50.3995 88.2326C50.7834 88.1545 51.1652 88.0718 51.545 87.9848L49.7245 80.0398ZM48.774 80.2454L47.1459 72.2587C46.8942 72.31 46.6419 72.3582 46.3887 72.4033L47.8187 80.4279L49.2487 88.4524C49.634 88.3838 50.0185 88.3103 50.4021 88.2321L48.774 80.2454ZM47.8187 80.4279L46.3856 72.4039C46.1341 72.4488 45.8814 72.4907 45.6274 72.5295L46.8594 80.5868L48.0914 88.6441C48.4784 88.5849 48.8652 88.5209 49.2519 88.4518L47.8187 80.4279ZM46.8594 80.5868L45.6247 72.5299C45.3678 72.5693 45.1129 72.6052 44.8597 72.6377L45.8964 80.7225L46.9331 88.8072C47.323 88.7572 47.71 88.7026 48.0941 88.6437L46.8594 80.5868ZM45.8964 80.7225L44.862 72.6374C44.6066 72.6701 44.3497 72.6998 44.0916 72.7265L44.9304 80.8342L45.7692 88.9418C46.156 88.9018 46.5432 88.8571 46.9307 88.8075L45.8964 80.7225ZM44.9304 80.8342L44.0888 72.7268C43.8342 72.7532 43.5784 72.7765 43.3213 72.7968L43.9618 80.9225L44.6022 89.0483C44.9918 89.0176 45.3816 88.982 45.7719 88.9415L44.9304 80.8342ZM43.9618 80.9225L43.3208 72.7968C43.0656 72.8169 42.81 72.8339 42.5541 72.8476L42.9915 80.9868L43.4289 89.1261C43.8203 89.105 44.2116 89.0791 44.6027 89.0482L43.9618 80.9225ZM42.9915 80.9868L42.8139 72.8378C33.8262 73.0337 26.2076 70.6878 19.5988 65.2225L14.4043 71.5039L9.20983 77.7853C19.2232 86.0659 30.8019 89.4053 43.1691 89.1359L42.9915 80.9868ZM14.4043 71.5039L19.6402 65.257C19.4395 65.0889 19.2423 64.9195 19.0484 64.7489L13.6635 70.8678L8.27866 76.9867C8.57354 77.2462 8.87025 77.5009 9.16842 77.7508L14.4043 71.5039ZM13.6635 70.8678L19.0498 64.7501C18.8531 64.5769 18.6599 64.4027 18.4702 64.2275L12.9385 70.214L7.40682 76.2005C7.69519 76.467 7.98548 76.7286 8.2773 76.9855L13.6635 70.8678ZM12.9385 70.214L18.4703 64.2276C18.2785 64.0504 18.0886 63.8706 17.9003 63.6883L12.2293 69.5429L6.55817 75.3976C6.83746 75.6681 7.12026 75.9357 7.40671 76.2004L12.9385 70.214ZM12.2293 69.5429L17.9059 63.6937C17.7178 63.5111 17.5332 63.3277 17.3521 63.1434L11.5367 68.8547L5.72133 74.566C5.99641 74.8461 6.27363 75.1214 6.55261 75.3922L12.2293 69.5429ZM11.5367 68.8547L17.3535 63.1447C17.1697 62.9576 16.9882 62.7683 16.809 62.577L10.8608 68.1499L4.91261 73.7227C5.17842 74.0065 5.44759 74.2871 5.71998 74.5646L11.5367 68.8547ZM10.8608 68.1499L16.813 62.5812C16.6357 62.3918 16.4612 62.2006 16.2893 62.0077L10.2025 67.4288L4.11574 72.85C4.37685 73.1431 4.64118 73.4326 4.90869 73.7186L10.8608 68.1499ZM10.2025 67.4288L16.2866 62.0046C16.1138 61.8108 15.944 61.6156 15.7771 61.4189L9.56164 66.692L3.34618 71.9651C3.60042 72.2648 3.85787 72.5607 4.11846 72.853L10.2025 67.4288ZM9.56164 66.692L15.7748 61.4161C15.607 61.2186 15.4416 61.0188 15.2785 60.8171L8.9389 65.9403L2.59928 71.0635C2.84534 71.368 3.09511 71.6695 3.34848 71.9678L9.56164 66.692ZM8.9389 65.9403L15.2785 60.8171C15.1162 60.6163 14.9561 60.4131 14.7983 60.2076L8.33454 65.1733L1.87075 70.1389C2.10958 70.4498 2.35245 70.758 2.59928 71.0635L8.9389 65.9403ZM8.33454 65.1733L14.7937 60.2016C14.6381 59.9995 14.4837 59.7935 14.3303 59.5835L7.74889 64.3921L1.16748 69.2008C1.398 69.5163 1.63389 69.8312 1.87543 70.145L8.33454 65.1733ZM7.74889 64.3921L14.329 59.5817C14.1761 59.3726 14.0254 59.1611 13.877 58.9474L7.18215 63.5968L0.487317 68.2462C0.710354 68.5674 0.937505 68.8862 1.16879 69.2026L7.74889 64.3921ZM7.18215 63.5968L13.8787 58.9498C13.7304 58.7361 13.5842 58.52 13.4403 58.3017L6.63522 62.7882L-0.169879 67.2747C0.0443437 67.5996 0.262878 67.9228 0.485641 68.2438L7.18215 63.5968ZM6.63522 62.7882L13.4395 58.3004C13.2981 58.0861 13.1583 57.8683 13.0201 57.647L6.10776 61.9665L-0.804538 66.286C-0.59803 66.6164 -0.386251 66.9466 -0.169021 67.276L6.63522 62.7882ZM6.10776 61.9665L13.0204 57.6475C12.883 57.4276 12.7475 57.2048 12.6138 56.9789L5.60031 61.1322L-1.41312 65.2855C-1.2152 65.6197 -1.0125 65.9531 -0.804846 66.2855L6.10776 61.9665ZM5.60031 61.1322L12.6164 56.9834C12.4835 56.7586 12.3538 56.5332 12.2272 56.307L5.11344 60.2859L-2.00037 64.2648C-1.80924 64.6065 -1.61431 64.9452 -1.41574 65.281L5.60031 61.1322ZM5.11344 60.2859L12.2262 56.3051C12.1006 56.0807 11.9772 55.8536 11.8558 55.6236L4.64712 59.4278L-2.56158 63.2321C-2.3791 63.5779 -2.19182 63.9227 -1.99934 64.2666L5.11344 60.2859ZM4.64712 59.4278L11.8535 55.6191C11.7335 55.3922 11.6156 55.1621 11.4998 54.9292L4.2017 58.5591L-3.09639 62.1889C-2.92237 62.5388 -2.74338 62.8881 -2.55925 63.2365L4.64712 59.4278ZM4.2017 58.5591L11.5003 54.9303C11.3837 54.6958 11.2705 54.4612 11.1606 54.2263L3.77739 57.6796L-3.60585 61.133C-3.43989 61.4878 -3.27021 61.8393 -3.09693 62.1879L4.2017 58.5591ZM3.77739 57.6796L11.1612 54.2275C11.0518 53.9934 10.9447 53.7568 10.8398 53.5176L3.37463 56.7901L-4.09053 60.0626C-3.93397 60.4197 -3.77265 60.7762 -3.60641 61.1318L3.77739 57.6796ZM3.37463 56.7901L10.8393 53.5166C10.7356 53.2799 10.6346 53.0417 10.5363 52.8017L2.99352 55.8912L-4.54925 58.9806C-4.40075 59.3431 -4.24774 59.7041 -4.09009 60.0636L3.37463 56.7901ZM2.99352 55.8912L10.5363 52.8017C10.4375 52.5604 10.3418 52.3188 10.2495 52.0768L2.6343 54.9831L-4.98088 57.8895C-4.84112 58.2557 -4.69718 58.6194 -4.54925 58.9806L2.99352 55.8912ZM2.6343 54.9831L10.2495 52.0768C10.1563 51.8326 10.0664 51.5885 9.97988 51.3443L2.29706 54.0668L-5.38576 56.7893C-5.25485 57.1588 -5.11983 57.5255 -4.98088 57.8895L2.6343 54.9831ZM2.29706 54.0668L9.98044 51.3458C9.89399 51.1017 9.81012 50.8554 9.72876 50.6069L1.98224 53.1425L-5.76428 55.6781C-5.64305 56.0485 -5.51712 56.4184 -5.38632 56.7878L2.29706 54.0668ZM1.98224 53.1425L9.73038 50.6118C9.64866 50.3616 9.57062 50.1129 9.49628 49.8655L1.69007 52.211L-6.11614 54.5564C-6.00321 54.9322 -5.88632 55.3045 -5.76589 55.6732L1.98224 53.1425ZM1.69007 52.211L9.495 49.8613C9.42081 49.6148 9.34968 49.3673 9.28159 49.1188L1.42033 51.2725L-6.44094 53.4262C-6.33707 53.8054 -6.22838 54.1836 -6.11486 54.5606L1.69007 52.211ZM1.42033 51.2725L9.28058 49.1151C9.21218 48.8659 9.14652 48.6146 9.08348 48.3611L1.17333 50.3276L-6.73682 52.2942C-6.64278 52.6725 -6.54392 53.051 -6.43993 53.4299L1.42033 51.2725ZM1.17333 50.3276L9.08332 48.3604C9.02124 48.1108 8.96216 47.8599 8.90612 47.6078L0.949524 49.3772L-7.00707 51.1465C-6.92179 51.53 -6.83166 51.9129 -6.73666 52.2949L1.17333 50.3276ZM0.949524 49.3772L8.90482 47.602C8.84853 47.3498 8.79537 47.0969 8.74533 46.8434L0.748691 48.4219L-7.24795 50.0004C-7.17197 50.3853 -7.09125 50.7693 -7.00578 51.1523L0.949524 49.3772ZM0.748691 48.4219L8.7445 46.8392C8.69455 46.5869 8.64767 46.3334 8.6038 46.0785L0.571048 47.4616L-7.4617 48.8447C-7.3951 49.2315 -7.32362 49.6181 -7.24712 50.0046L0.748691 48.4219ZM0.571048 47.4616L8.60318 46.075C8.55891 45.8185 8.51799 45.5631 8.4805 45.3088L0.416702 46.4976L-7.64709 47.6863C-7.58964 48.0761 -7.52752 48.4635 -7.46109 48.8483L0.571048 47.4616ZM0.416702 46.4976L8.48004 45.3058C8.44217 45.0495 8.40718 44.7912 8.37498 44.5305L0.285547 45.53L-7.80388 46.5296C-7.75624 46.9152 -7.70393 47.3018 -7.64664 47.6894L0.416702 46.4976ZM0.285547 45.53L8.37564 44.5359C8.34397 44.2782 8.31536 44.0195 8.28973 43.7596L0.17813 44.5596L-7.93347 45.3595C-7.89522 45.7474 -7.8523 46.1356 -7.80455 46.5242L0.285547 45.53ZM0.17813 44.5596L8.29354 43.7993C8.26852 43.5322 8.24666 43.264 8.22791 42.9946L0.0966373 43.5605L-8.03464 44.1265C-8.00701 44.5235 -7.97461 44.9214 -7.93728 45.3199L0.17813 44.5596ZM0.0966373 43.5605L8.22831 43.0003C8.20987 42.7327 8.19474 42.4656 8.18295 42.1994L0.0399744 42.5597L-8.10301 42.92C-8.08525 43.3212 -8.06254 43.7216 -8.03503 44.1208L0.0966373 43.5605ZM0.0399744 42.5597L8.18296 42.1995C8.1711 41.9314 8.16253 41.6642 8.1573 41.3976L0.00792422 41.5577L-8.14145 41.7177C-8.13356 42.1195 -8.12069 42.5202 -8.10301 42.9199L0.0399744 42.5597ZM0.00792422 41.5577L8.1573 41.3976C8.15203 41.1292 8.15003 40.8618 8.15134 40.5952L0.000486683 40.5551L-8.15036 40.5151C-8.15234 40.9169 -8.14931 41.3178 -8.14145 41.7177L0.00792422 41.5577ZM0.000486683 40.5551L8.15134 40.5952C8.15265 40.3286 8.15727 40.0621 8.16521 39.7958L0.0178788 39.5529L-8.12945 39.3101C-8.14142 39.7117 -8.14839 40.1133 -8.15036 40.5151L0.000486683 40.5551ZM0.0178788 39.5529L8.16521 39.7958C8.1732 39.5276 8.18447 39.2587 8.19896 38.9892L0.0597734 38.5515L-8.07942 38.1139C-8.1008 38.5115 -8.11753 38.9103 -8.12945 39.3101L0.0178788 39.5529ZM0.0597734 38.5515L8.19869 38.9942C8.21326 38.7264 8.23103 38.4597 8.25206 38.194L0.126501 37.5511L-7.99905 36.9082C-8.03075 37.3088 -8.05739 37.709 -8.07914 38.1088L0.0597734 38.5515ZM0.126501 37.5511L8.25206 38.194C8.27319 37.9269 8.2975 37.6609 8.32508 37.3958L0.217838 36.5528L-7.8894 35.7098C-7.93096 36.1095 -7.96746 36.5089 -7.99905 36.9082L0.126501 37.5511ZM0.217838 36.5528L8.32508 37.3958C8.35277 37.1294 8.38365 36.8642 8.41775 36.5998L0.333787 35.5569L-7.75017 34.5141C-7.80161 34.9128 -7.84797 35.3113 -7.8894 35.7098L0.217838 36.5528ZM0.333787 35.5569L8.41766 36.6005C8.45193 36.335 8.48944 36.07 8.53019 35.8054L0.474239 34.5646L-7.58171 33.3238C-7.64269 33.7197 -7.69881 34.1162 -7.75009 34.5134L0.333787 35.5569ZM0.474239 34.5646L8.53059 35.8028C8.57099 35.5399 8.61469 35.2776 8.66167 35.0159L0.638977 33.5756L-7.38372 32.1354C-7.45487 32.5317 -7.521 32.9288 -7.58211 33.3264L0.474239 34.5646ZM0.638977 33.5756L8.66197 35.0142C8.70915 34.7511 8.75941 34.4894 8.81277 34.2293L0.828107 32.5913L-7.15656 30.9532C-7.23752 31.3479 -7.31328 31.7425 -7.38402 32.137L0.638977 33.5756ZM0.828107 32.5913L8.81382 34.2242C8.86728 33.9627 8.92379 33.7028 8.9834 33.4445L1.04119 31.6117L-6.90102 29.7789C-6.9917 30.1718 -7.07718 30.565 -7.15761 30.9584L0.828107 32.5913ZM1.04119 31.6117L8.9834 33.4445C9.04371 33.1832 9.10698 32.9235 9.17326 32.6654L1.27856 30.6377L-6.61615 28.61C-6.71613 28.9993 -6.81103 29.3889 -6.90102 29.7789L1.04119 31.6117ZM1.27856 30.6377L9.17326 32.6654C9.23943 32.4078 9.3091 32.15 9.38224 31.8918L1.53999 29.6699L-6.30225 27.4479C-6.41135 27.8329 -6.51605 28.2203 -6.61615 28.61L1.27856 30.6377ZM1.53999 29.6699L9.38274 31.8901C9.45566 31.6325 9.53142 31.3769 9.61006 31.1233L1.82494 28.7088L-5.96018 26.2943C-6.07952 26.6791 -6.19365 27.0643 -6.30275 27.4497L1.53999 29.6699ZM1.82494 28.7088L9.61006 31.1233C9.68906 30.8686 9.77145 30.6141 9.85718 30.3599L2.13364 27.7552L-5.58991 25.1504C-5.7177 25.5293 -5.84118 25.9106 -5.96018 26.2943L1.82494 28.7088ZM2.13364 27.7552L9.85853 30.3559C9.94328 30.1042 10.0307 29.8551 10.1209 29.6083L2.46562 26.8093L-5.18966 24.0103C-5.32894 24.3912 -5.4627 24.7726 -5.59126 25.1544L2.13364 27.7552ZM2.46562 26.8093L10.1224 29.6042C10.2147 29.3515 10.3093 29.1016 10.4065 28.8544L2.8208 25.872L-4.76489 22.8895C-4.91211 23.2639 -5.05413 23.639 -5.19115 24.0144L2.46562 26.8093ZM2.8208 25.872L10.4067 28.854C10.5042 28.606 10.605 28.3586 10.7092 28.1117L3.19917 24.9434L-4.31082 21.7751C-4.46656 22.1443 -4.61799 22.5158 -4.76506 22.8899L2.8208 25.872ZM3.19917 24.9434L10.7093 28.1113C10.8138 27.8637 10.9204 27.6192 11.0293 27.3778L3.60007 24.0246L-3.82921 20.6715C-3.99525 21.0394 -4.15573 21.4074 -4.31097 21.7755L3.19917 24.9434ZM3.60007 24.0246L11.0293 27.3778C11.1397 27.1333 11.2526 26.8911 11.3682 26.651L4.02362 23.1161L-3.32094 19.5812C-3.49524 19.9433 -3.66458 20.3067 -3.82921 20.6715L3.60007 24.0246ZM4.02362 23.1161L11.3687 26.6499C11.485 26.4082 11.6037 26.169 11.7248 25.9324L4.46937 22.218L-2.78604 18.5036C-2.96946 18.8619 -3.14787 19.2215 -3.32144 19.5822L4.02362 23.1161ZM4.46937 22.218L11.7242 25.9335C11.8467 25.6943 11.9713 25.4582 12.098 25.2252L4.93721 21.3314L-2.22356 17.4377C-2.41626 17.7921 -2.60347 18.1471 -2.78549 18.5025L4.46937 22.218ZM4.93721 21.3314L12.0996 25.2222C12.2272 24.9873 12.3577 24.754 12.491 24.5224L5.4265 20.4566L-1.63799 16.3907C-1.83807 16.7384 -2.0338 17.0884 -2.22519 17.4407L4.93721 21.3314ZM5.4265 20.4566L12.4885 24.5267C12.6227 24.2939 12.7599 24.0623 12.9 23.8322L5.93733 19.5943L-1.0253 15.3564C-1.23262 15.697 -1.43607 16.0404 -1.63551 16.3864L5.4265 20.4566ZM5.93733 19.5943L12.8976 23.8361C13.0379 23.6059 13.1806 23.3778 13.3259 23.1519L6.46928 18.7444L-0.387294 14.337C-0.603491 14.6734 -0.815363 15.0119 -1.02293 15.3525L5.93733 19.5943ZM6.46928 18.7444L13.3234 23.1556C13.4691 22.9292 13.6164 22.7064 13.7653 22.4871L7.02212 17.9081L0.278961 13.329C0.0524627 13.6626 -0.16872 13.9974 -0.384867 14.3332L6.46928 18.7444ZM7.02212 17.9081L13.7674 22.4841C13.9156 22.2655 14.068 22.047 14.2245 21.8283L7.5952 17.0858L0.965926 12.3434C0.733657 12.6681 0.503824 12.9976 0.27688 13.3321L7.02212 17.9081ZM7.5952 17.0858L14.2254 21.827C14.3796 21.6113 14.5372 21.3968 14.6978 21.1836L8.18862 16.2777L1.67941 11.3717C1.43776 11.6924 1.19954 12.0167 0.965023 12.3446L7.5952 17.0858ZM8.18862 16.2777L14.7004 21.1802C14.86 20.9682 15.0228 20.7575 15.1887 20.5483L8.80151 15.4845L2.41437 10.4207C2.165 10.7352 1.9191 11.0534 1.67684 11.3751L8.18862 16.2777ZM8.80151 15.4845L15.1887 20.5483C15.3553 20.3381 15.5242 20.1303 15.6954 19.9249L9.43388 14.7065L3.17237 9.48818C2.9156 9.79627 2.66294 10.1071 2.41437 10.4207L8.80151 15.4845ZM9.43388 14.7065L15.6548 19.9733C21.7162 12.8137 29.4634 9.0187 39.0167 8.24142L38.3557 0.117321L37.6947 -8.00678C24.1075 -6.90129 12.2537 -1.2387 3.21299 9.43981L9.43388 14.7065Z" fill="#1262C6"/></g></g></g><g transform="matrix(-1,0,0,-1,84.3174,85.5957)"><g transform="matrix(1,0,0,1,11.5835,0.8008)"></g><g><g></g></g></g></g></g>
</svg>
